<?xml version="1.0" encoding="iso-8859-1"?>
<!-- Generator: Adobe Illustrator 29.3.1, SVG Export Plug-In . SVG Version: 9.03 Build 55982)  -->
<svg version="1.1" id="Layer_1" xmlns="http://www.w3.org/2000/svg" xmlns:xlink="http://www.w3.org/1999/xlink" x="0px" y="0px"
	 viewBox="0 0 1820 1024" style="enable-background:new 0 0 1820 1024;" xml:space="preserve">
<path style="fill:#FEFEFE;" d="M0,0h1820v1024H0V0z"/>
<path style="fill:#D8381D;" d="M327.351,535.12c8.761,13.28,16.856,30.15,22.395,45.083c-8.681,1.116-17.994,0.362-26.752,0.268
	c-0.25-4.623-1.043-10.78,0.02-15.289c1.003-4.257,3.085-7.987,3.755-12.384C327.642,547.074,326.937,540.935,327.351,535.12z"/>
<path style="fill:#043A6C;" d="M896.505,134.16l1.359-2.133c3.861-2.214,11.538-0.737,15.954-0.488
	c0.087-10.913-2.269-73.711,1.789-78.65c2.457-0.459,2.865-0.255,5.209,0.697l-0.12,47.107l0.109,30.644
	c4.857-0.23,10.142-0.959,14.801,0.663l1.895,1.778l-0.028,11.486l-40.73,0.167L896.505,134.16z"/>
<path style="fill:#36AEBC;" d="M768.097,58.868c10.715-1.714,16.092,0.785,22.903,9.028c0.287,0.347,1.76,2.397,2.029,2.497
	c0.135,0.051,2.509-0.635,2.827-0.707c3.31-0.754,6.846-1.714,10.182-0.658l0.876,0.313c4.474,1.559,4.568,5.476,7.742,7.676
	c2.666,1.848,6.493,1.124,9.314,3.757c0.663,2.272,0.854,2.649,0.147,4.872c-3.723,2.214-7.081,1.508-11.368,1.506l-18.721-0.01
	l-38.414-0.011c-4.564-0.011-11.263,0.835-15.617-0.252c-2.118-0.529-2.794-1.403-4.361-2.878c-0.373-2.411-0.09-2.739,1.002-4.963
	c2.42-1.757,4.084-2.468,7.086-2.761l0.842-0.075c1.202-1.898,3.088-4.756,5.029-5.971c1.767-1.106,4.011-1.172,5.735-2.401
	C759.889,64.579,762.82,61.446,768.097,58.868z"/>
<path style="fill:#F55C2D;" d="M920.816,53.586c4.91,1.788,9.993,2.759,14.915,4.559c16.969,6.209,30.659,13.054,48.452,4.522
	l5.947-3.164l-0.189,43.819c-10.614,7.556-21.341,11.334-34.448,8.972c-11.779-2.123-23.263-8.139-34.797-11.601L920.816,53.586z"/>
<path style="fill:#DDECF1;" d="M1097.65,929.109l0.48-0.249c3.92,6.162,10.62,10.408,17.7,12.103
	c9.33,2.236,16.65-0.881,25.45-2.714c2.37,0.149,4.56,0.083,6.65,1.333l0.29,25.743c-11.71-1.946-24.92-0.079-36.83,0.017
	l-91.46,0.996l-0.07-35.596l76.29-0.101L1097.65,929.109z"/>
<path style="fill:#DDECF1;" d="M740.532,930.656c4.586,2.861,32.702,0.355,39.838,0.209l43.429-0.247
	c1.537-1.663,1.247-7.705,1.418-10.188l-0.114,45.888l-133.835-0.693l0.389-25.019l22.586,0.847
	c4.065,0.081,8.696,0.45,12.609-0.805l0.526-0.174c3.861-1.25,6.48-3.082,9.575-5.679L740.532,930.656z"/>
<path style="fill:#14588F;" d="M1682.93,616.593c5.18-2.507,16.46-2.491,21.88-0.729c5.69,1.844,10.86,6.906,16.27,8.035
	c2.93,7.48,9.54,26.053,6.25,33.318l-0.48,1.005l-0.24,0.499c-2.57,5.204-7.73,7.215-12.94,8.947
	c-9.39,3.121-70.74,18.615-72.23,20.332l-0.85,8.033c-0.36-2.457-0.26-5.101-0.35-7.589c-2.79-1.932-24.02,5.626-29.37,5.704
	l-0.76,0.002l-13.05,3.68c-0.93-2.684-1.81-5.163-3.35-7.572l-0.34-0.515c0.19-2.844-1.35-5.987-2.32-8.648l-8.99-21.575
	c0.83-2.552,10.94-3.809,13.49-7.263c1.27-2.145,4.13-2.63,6.42-3.537c3.31-1.316,6.82-1.861,8.5-5.078l1.62,0.645
	c7.92-2.941,15.56-7.053,23.39-10.322c2.36-0.985,8.13-2.512,9.9-4.045c0.37-0.329,0.92-1.866,1.18-2.389
	c0.52,0.926,0.99,1.15,1.93,1.615l11.85-5.359L1682.93,616.593z"/>
<path style="fill:#4887C3;" d="M1682.93,616.593l0.6,0.979l-86.28,39.484l-1.7-4.799c1.27-2.145,4.13-2.63,6.42-3.537
	c3.31-1.316,6.82-1.861,8.5-5.078l1.62,0.645c7.92-2.941,15.56-7.053,23.39-10.322c2.36-0.985,8.13-2.512,9.9-4.045
	c0.37-0.329,0.92-1.866,1.18-2.389c0.52,0.926,0.99,1.15,1.93,1.615l11.85-5.359L1682.93,616.593z"/>
<path style="fill:#DDECF1;" d="M1595.55,652.257l1.7,4.799l12.86,37.094l-13.05,3.68c-0.93-2.684-1.81-5.163-3.35-7.572l-0.34-0.515
	c0.19-2.844-1.35-5.987-2.32-8.648l-8.99-21.575C1582.89,656.968,1593,655.711,1595.55,652.257z"/>
<path style="fill:#DDECF1;" d="M313.554,939.784l53.147-1.472l1.069-3.319l0.624,3.229c5.635,1.233,12.79,0.348,18.66,0.28
	l39.064-0.415l1.706-1.13c4.363,2.809,23.123,0.882,29.297,0.767c3.417-0.063,7.821,0.344,11.131-0.323
	c0.62-0.125,0.982-0.395,1.495-0.741l1.057,0.273c7.232,5.472,26.812,2.034,35.912,1.221l2.603,0.957l0.941,25.559
	c-0.682-0.453-1.159-0.814-1.985-0.958c-2.892-0.503-6.746-0.099-9.748-0.121l-20.19-0.104l-56.155-0.937l-178.019-3.98l-81.1-3.126
	c-18.889-1.026-38.561-1.702-57.081-5.629c1.976-1.279,6.249-1.305,8.639-1.694c17.699-2.882,35.89-3.422,53.782-4.252l0.825-2.372
	l0.953,2.087l42.321-1.443l59.694-1.744l27.573-0.391C303.724,939.87,309.782,938.956,313.554,939.784z"/>
<path style="fill:#F69361;" d="M176.524,853.898c18.337,5.72,37.704,9.512,56.892,10.666l30.173,0.318l8.607,75.515l-59.694,1.744
	l-42.321,1.443l-0.953-2.087L176.524,853.898z"/>
<path style="fill:#FEFEFE;" d="M233.416,864.564l30.173,0.318l8.607,75.515l-59.694,1.744L233.416,864.564z"/>
<path style="fill:#043A6C;" d="M1506.28,395.916c-3.67-5.116-4.7-8.646-3.62-14.922c0.93-5.374,4.32-12.179,8.93-15.292
	c2.27-1.533,5.81-2.665,8.53-2.201c4.52,0.77,10.36,5.299,15,6.864c18.42,6.2,44.03,8.114,54.94,26.737
	c4.94,8.443,3.76,20.27,1.22,29.373c-2.5,8.921-9.35,30.424-17.88,34.757c-1.35,0.685-2.84,0.954-4.33,1.16
	c-1.43,8.041-0.13,17.947,0.06,26.182l0.58,7.082l5.54,2.082c-1.49,2.47-3.14,4.884-4.06,7.634l-6.74,8.505
	c-2.97,4.382-8.11,9.548-11.92,13.223c-2.05-1.871-4.31-4.505-6.92-5.508l-6.62-5.101l-2.81-1.455
	c-3.24-3.136-11.52-10.092-12.12-14.415l2.42-1.232c0.8-4.986,0.97-9.675,0.95-14.705c-5.2,0.742-11.49,1.284-16.7,0.386
	c-3.94-0.681-7.79-2.922-10.04-6.26c-7.23-10.736-7.07-25.976-4.65-38.189c0.28-4.29,2.04-9.265,3.01-13.499L1506.28,395.916z"/>
<path style="fill:#F9A766;" d="M1527.43,484.684c7.77-0.449,16-4.271,22.11-8.952c5.89-4.518,11.52-11.273,12.58-18.843
	c-1.97-1.491-3.57-2.707-4.33-5.177c-2.03-6.584-1.58-14.953,1.54-21.126c1.91-3.775,3.86-5.237,7.84-6.505
	c2,0.133,3.77,0.345,5.3,1.763c3.57,3.292,4.29,8.376,4.29,12.962c-0.01,7.243-5.02,11.182-9.78,15.861
	c0.28,2.681,1.25,5.182,2.09,7.725c-1.43,8.041-0.13,17.947,0.06,26.182l0.58,7.082l5.54,2.082c-1.49,2.47-3.14,4.884-4.06,7.634
	l-6.74,8.505c-2.97,4.382-8.11,9.548-11.92,13.223c-2.05-1.871-4.31-4.505-6.92-5.508l-6.62-5.101l-2.81-1.455
	c-3.24-3.136-11.52-10.092-12.12-14.415l2.42-1.232C1527.28,494.403,1527.45,489.714,1527.43,484.684z"/>
<path style="fill:#E4E5EC;" d="M1538.99,516.491c0.88-2.659,4.3-4.345,6.52-5.821c7.49-4.987,16.44-9.673,23.19-15.559l0.43-6.537
	l0.58,7.082l5.54,2.082c-1.49,2.47-3.14,4.884-4.06,7.634l-6.74,8.505c-2.97,4.382-8.11,9.548-11.92,13.223
	c-2.05-1.871-4.31-4.505-6.92-5.508L1538.99,516.491z"/>
<path style="fill:#F9BB80;" d="M1506.28,395.916c5.55,4.357,11.28,8.352,18.1,10.499c6.25,1.969,28.29,2.464,31.41,7.363
	c0.53,0.842,0.92,2.54,1.05,3.555c1.06,8.602-4.25,22.585-9.62,28.922c-5.69,6.707-14.87,12.75-23.91,13.257
	c-7.16,0.402-13.27-2.478-18.39-7.336c-3.52-3.334-5.76-7.856-8.88-11.555c0.28-4.29,2.04-9.265,3.01-13.499L1506.28,395.916z"/>
<path style="fill:#043A6C;" d="M230.178,491.164c-18.904-3.079-42.918-8.42-54.947-24.762c-3.617-4.913-5.331-11.584-4.294-17.61
	c3.937-22.877,23.574-44.739,42.122-57.434c15.588-10.669,33.03-17.103,52.151-13.619c12.183,2.22,22.497,7.724,29.619,18.037
	c12.188,17.646,16.35,40.548,24.055,60.314c-5.335,13.104-13.409,24.548-26.8,30.322c-6.06,2.613-12.437,3.764-18.924,4.659
	l-1.72-8.649c-1.802,0.132-3.569,0.048-5.366-0.111c-10.082-0.895-18.693-5.445-24.785-13.629c-1.58-2.123-2.422-4.826-4.154-6.783
	l-0.625-0.679l-1.734,9.566C233.964,475.452,233.136,487.914,230.178,491.164z"/>
<path style="fill:#F69361;" d="M236.51,461.22l-1.115-1.776l-1.003,0.09c-3.69,0.306-6.255,0.034-9.155-2.404
	c-2.981-2.507-4.629-5.739-4.881-9.618c-0.19-2.918,0.078-5.494,2.108-7.789c1.903-2.151,4.42-3.247,7.264-3.285
	c4.871-0.064,7.811,5.643,11.098,5.288c0.739-2.456,0.037-5.734,2.226-6.943c12.893,2.699,26.136,2.596,37.526-4.892
	c6.513-4.282,8.984-10.073,11.863-17.034c4.105,16.402,7.086,41.031-1.901,56.264c-3.583,6.074-9.021,10.894-15.955,12.664
	l-3.145,0.637c-1.802,0.132-3.569,0.048-5.366-0.111c-10.082-0.895-18.693-5.445-24.785-13.629c-1.58-2.123-2.422-4.826-4.154-6.783
	L236.51,461.22z"/>
<path style="fill:#F55C2D;" d="M227.137,443.111c1.248-0.398,2.627-0.557,3.918-0.798c2.118,1.606,3.509,2.816,4.776,5.243
	c-0.028,2.907,0.392,3.916-1.666,6.126l-3.364-0.875c-2.684-2.331-4.608-3.814-5.266-7.474L227.137,443.111z"/>
<path style="fill:#DDECF1;" d="M1523.94,941.202l4.13-0.076c1.94-3.944,1.48-9.828,1.73-14.171l1.87-23.154l6.43-72.587
	c1.2-11.53,1.93-23.847,4.3-35.178l48.63,145.491l46.55,0.401c3.09,0.039,6.54,0.842,8.85-1.287l1.48,2.106l39.37,2.743
	c10.29,0.81,20.94,1.113,30.83,4.217c-26.43,7.058-56.56,6.358-83.82,7.884l-228.32,6.629l-62.27,0.391
	c-10.21,0.054-21.1-0.582-31.23,0.602l0.08-24.864c4.34,0.02,8.61,0.083,12.91-0.609l0.86-0.145c1.13,0.006,3-0.821,4.13-1.168
	c3.71,2.613,41.82,1.858,48.6,0.934c2.8,1.609,6.33,1.069,9.49,1.083c8.81,0.039,18.14,0.587,26.88-0.165l55.57,0.553l32.05,0.394
	C1509.84,941.253,1517.19,941.842,1523.94,941.202z"/>
<path style="fill:#043A6C;" d="M1575.25,497.738l1.17,1.279l54.96,11.319l16.93,3.665c1.9,0.432,4.85,0.708,6.57,1.507
	c3.04,1.414,20.95,25.881,23.7,29.779c17.18,24.361,32.42,50.464,42.5,78.612c-5.41-1.129-10.58-6.191-16.27-8.035
	c-5.42-1.762-16.7-1.778-21.88,0.729l-22.59,7.194l-11.85,5.359c-0.94-0.465-1.41-0.689-1.93-1.615
	c-0.26,0.523-0.81,2.06-1.18,2.389c-1.77,1.533-7.54,3.06-9.9,4.045c-7.83,3.269-15.47,7.381-23.39,10.322l-1.62-0.645
	c-1.68,3.217-5.19,3.762-8.5,5.078l9.54-47.797c1.02-4.653,2.4-8.907,4.08-13.356c-6.96-4.213-19.56-5.738-27.59-7.525
	c-8.2-3.051-17.53-4.717-26.04-6.828l-18.18-4.588c2.04-3.931-1.18-27.363-1.78-33.171c-0.15-1.455-1.21-6.288-0.8-7.485
	c0.58-1.738,3.29-4.766,4.41-6.378c2.61,1.003,4.87,3.637,6.92,5.508c3.81-3.675,8.95-8.841,11.92-13.223l6.74-8.505
	C1572.11,502.622,1573.76,500.208,1575.25,497.738z"/>
<path style="fill:#FEFEFE;" d="M1646.56,627.531l2.36-13.401c4.64,2.772,7.81,5.717,11.42,9.657l-11.85,5.359
	C1647.55,628.681,1647.08,628.457,1646.56,627.531z"/>
<path style="fill:#92B8E2;" d="M1615.59,587.567c2.88,2.728,4.43,6.861,6.14,10.405c-0.08,4.593-2.22,10.071-3.33,14.567
	c-2.55,10.314-4.76,20.972-7.93,31.103c-1.68,3.217-5.19,3.762-8.5,5.078l9.54-47.797
	C1612.53,596.27,1613.91,592.016,1615.59,587.567z"/>
<path style="fill:#4887C3;" d="M1575.25,497.738l1.17,1.279l18.09,32.855l-5.12,7.693c3.41,0.514,13.43,1.09,15.89,2.898
	L1588,580.042c-8.2-3.051-17.53-4.717-26.04-6.828l-18.18-4.588c2.04-3.931-1.18-27.363-1.78-33.171
	c-0.15-1.455-1.21-6.288-0.8-7.485c0.58-1.738,3.29-4.766,4.41-6.378c2.61,1.003,4.87,3.637,6.92,5.508
	c3.81-3.675,8.95-8.841,11.92-13.223l6.74-8.505C1572.11,502.622,1573.76,500.208,1575.25,497.738z"/>
<path style="fill:#DDECF1;" d="M1545.61,521.592c2.61,1.003,4.87,3.637,6.92,5.508c3.81-3.675,8.95-8.841,11.92-13.223l6.74-8.505
	l-9.23,67.842l-18.18-4.588c2.04-3.931-1.18-27.363-1.78-33.171c-0.15-1.455-1.21-6.288-0.8-7.485
	C1541.78,526.232,1544.49,523.204,1545.61,521.592z"/>
<path style="fill:#032E5A;" d="M1610.11,694.15l0.76-0.002c5.35-0.078,26.58-7.636,29.37-5.704c0.09,2.488-0.01,5.132,0.35,7.589
	l2.01,76.471c-3.51-0.439-7.8-1.448-11.22-0.583l-0.87,1.558l11.62,120.219c1.42,15.284,1.17,31.997,4.3,46.943
	c-2.31,2.129-5.76,1.326-8.85,1.287l-46.55-0.401l-48.63-145.491c-2.37,11.331-3.1,23.648-4.3,35.178l-6.43,72.587l-1.87,23.154
	c-0.25,4.343,0.21,10.227-1.73,14.171l-4.13,0.076c-6.75,0.64-14.1,0.051-20.9,0.024l-32.05-0.394l-5.37-150.312l-0.18-6.084
	l-0.2-12.533c7.49,1.156,15.23,2.783,22.82,1.772c21.38-2.848,30.08-15.217,33.33-35.358c0.5-3.087,0.33-7.626,2.35-10.123
	l0.29-0.322l2.63,0.718l4.8,0.528c5.21,2.346,11.74,3.268,17.35,4.577c4.79,1.118,10,2.809,14.87,3.28
	c3.66-2.177,7.98-3.502,11.94-5.059c2.52-5.051,3.29-11.39,4.36-16.91l4.7-23.439c2.96-0.964,5.59-1.584,8.69-1.824l0.34,0.515
	c1.54,2.409,2.42,4.888,3.35,7.572L1610.11,694.15z"/>
<path style="fill:#032146;" d="M1524.03,727.872l2.63,0.718c-0.02,8.46-1.04,18.489,1.75,26.521c2,5.771,5.57,9.517,11.03,12.278
	c7.78,3.933,19.75,8.305,28.46,8.537c13.37,0.357,24.94-5.621,37.77-6.85c5.25-0.503,10.98,0.59,16.2,1.275
	c3.67,0.482,6.36,0.032,8.64,3.128l11.62,120.219c1.42,15.284,1.17,31.997,4.3,46.943c-2.31,2.129-5.76,1.326-8.85,1.287
	l-0.49-0.826l-8.13-0.214c0.17-6.701,1.59-13.295,1.9-19.999c0.88-19.014-0.75-41.155-4.43-59.767l-9.01-46.78
	c-1.97-10.101-4.54-24.13-13.84-30.141c-3.23-2.092-8.52-3.83-12.38-4.112c-8.32-0.608-17.32,1.506-25.83,1.51
	c-20.54,0.008-40.35-5.042-60.85-0.933c-2.1,0.422-4.66,0.412-6.66,1.103c-2.01,0.692-3.45,0.416-5.34,0.889
	c-1.9,0.477-4.6,0.346-6.22,0.889c-5.89,1.976-14.49,0.907-20.86,0.889l-0.2-12.533c7.49,1.156,15.23,2.783,22.82,1.772
	c21.38-2.848,30.08-15.217,33.33-35.358c0.5-3.087,0.33-7.626,2.35-10.123L1524.03,727.872z"/>
<path style="fill:#043A6C;" d="M1610.11,694.15l0.76-0.002c5.35-0.078,26.58-7.636,29.37-5.704c0.09,2.488-0.01,5.132,0.35,7.589
	l2.01,76.471c-3.51-0.439-7.8-1.448-11.22-0.583l-0.87,1.558c-2.28-3.096-4.97-2.646-8.64-3.128c-5.22-0.685-10.95-1.778-16.2-1.275
	c-12.83,1.229-24.4,7.207-37.77,6.85c-8.71-0.232-20.68-4.604-28.46-8.537c-5.46-2.761-9.03-6.507-11.03-12.278
	c-2.79-8.032-1.77-18.061-1.75-26.521l4.8,0.528c5.21,2.346,11.74,3.268,17.35,4.577c4.79,1.118,10,2.809,14.87,3.28
	c3.66-2.177,7.98-3.502,11.94-5.059c2.52-5.051,3.29-11.39,4.36-16.91l4.7-23.439c2.96-0.964,5.59-1.584,8.69-1.824l0.34,0.515
	c1.54,2.409,2.42,4.888,3.35,7.572L1610.11,694.15z"/>
<path style="fill:#92B8E2;" d="M1584.68,691.567c2.96-0.964,5.59-1.584,8.69-1.824l-10.16,51.921l-19.53-4.689
	c3.66-2.177,7.98-3.502,11.94-5.059c2.52-5.051,3.29-11.39,4.36-16.91L1584.68,691.567z"/>
<path style="fill:#043A6C;" d="M1465.62,790.52l0.56,0.092c4.05,0.622,8.21,0.327,12.21,1.094c9.57,1.834,18.08,8.841,23.81,16.465
	c5.72,7.625,8.87,16.296,11.75,25.263c3.81,11.818,6.92,24.993,7.97,37.413c1.85,21.86-0.21,44.376,0.13,66.33
	c0.04,2.621-0.24,2.584,1.89,4.025c-6.75,0.64-14.1,0.051-20.9,0.024l-32.05-0.394L1465.62,790.52z"/>
<linearGradient id="SVGID_1_" gradientUnits="userSpaceOnUse" x1="1420.4501" y1="405.4102" x2="1539.2435" y2="380.1159" gradientTransform="matrix(1 0 0 -1 0 1026)">
	<stop  offset="0" style="stop-color:#00386F"/>
	<stop  offset="1" style="stop-color:#084F80"/>
</linearGradient>
<path style="fill:url(#SVGID_1_);" d="M1512.91,503.671c3.71-1.366,7.27-2.335,11.15-3.05c0.6,4.323,8.88,11.279,12.12,14.415
	l2.81,1.455l6.62,5.101c-1.12,1.612-3.83,4.64-4.41,6.378c-0.41,1.197,0.65,6.03,0.8,7.485c0.6,5.808,3.82,29.24,1.78,33.171
	l18.18,4.588c8.51,2.111,17.84,3.777,26.04,6.828c8.03,1.787,20.63,3.312,27.59,7.525c-1.68,4.449-3.06,8.703-4.08,13.356
	l-9.54,47.797c-2.29,0.907-5.15,1.392-6.42,3.537c-2.55,3.454-12.66,4.711-13.49,7.263l8.99,21.575
	c0.97,2.661,2.51,5.804,2.32,8.648c-3.1,0.24-5.73,0.86-8.69,1.824l-4.7,23.439c-1.07,5.52-1.84,11.859-4.36,16.91
	c-3.96,1.557-8.28,2.882-11.94,5.059c-4.87-0.471-10.08-2.162-14.87-3.28c-5.61-1.309-12.14-2.231-17.35-4.577l-4.8-0.528
	l-2.63-0.718l-0.29,0.322c-2.02,2.497-1.85,7.036-2.35,10.123c-3.25,20.141-11.95,32.51-33.33,35.358
	c-7.59,1.011-15.33-0.616-22.82-1.772c-2.77-0.22-4.75-0.663-7.34-1.711c-1.53-5.753,0.14-14.527,0.35-20.685l3.41-74.598
	c-14.88-1.536-31.41-2.361-46.01-5.469c-3.57-0.761-5.16-3.405-7.27-6.161c7.72-0.711,20.8-1.096,27.27-5.604
	c3.09-2.16,4.36-5.232,5.12-8.786c2.18-10.12,0.27-21.75-0.96-31.893c-1.87-15.374-3.93-30.442-7.25-45.578l27.06-58.99l44.79-4.809
	C1507.04,507.279,1510.51,504.932,1512.91,503.671z"/>
<path style="fill:#032146;" d="M1468.88,664.882c5.32,0.388,13.26-2.452,18.23-4.407l-0.74,6.326
	c-6.46,1.246-13.23,4.147-19.62,4.887c-0.95-1.979-0.53-3.788-0.26-5.875L1468.88,664.882z"/>
<path style="fill:#DDECF1;" d="M1464.05,659.653c-1.45,2.832-2.69,5.877-5.3,7.835c-2.26-0.526-2.98-0.609-4.67-2.155l7.07-36.261
	c0.36-1.72,0.99-7.338,1.88-8.577c0.37-0.514,1-0.781,1.5-1.172c1.58,0.391,2.85,0.832,4.17,1.782c2.65,1.909,2.78,2.233,3.29,5.512
	C1470.12,638.209,1467.65,648.497,1464.05,659.653z"/>
<path style="fill:#FEFEFE;" d="M1487.11,660.475c2.8-2.723,10.62-4.422,14.54-5.696c-0.72,7.108-1.51,14.191-2.8,21.221
	c-1.12,6.118-2.92,13.263-2.13,19.518c7.65,8.211,16.76,15.186,25,22.843c3.44,3.202,7.64,6.47,9.74,10.757l-4.8-0.528l-2.63-0.718
	c-2.88-1.358-7.07-1.809-10.25-2.526l-22.74-4.996c-3.5-0.767-8.13-1.123-10.68-3.818c-1.6-3.543,0.28-10.572,0.85-14.462
	l5.16-35.269L1487.11,660.475z"/>
<path style="fill:#F9BB80;" d="M1494.87,613.375l9.15-4.708c-0.5,3.183-1.23,6.461-0.94,9.692c3.47,0.959,7,1.283,10.57,1.676
	c5.72,1.735,12.88,4.057,17.48,7.965c0.41,3.358,0.22,4.334-1.77,7.111l0.88,1.778c-0.95,2.126-2.09,6.108-3.48,7.812
	c-1.32,1.63-8.43,4.057-10.68,4.925l-14.43,5.153c-3.92,1.274-11.74,2.973-14.54,5.696c-4.97,1.955-12.91,4.795-18.23,4.407
	l-4.83-5.229c3.6-11.156,6.07-21.444,7.94-33.036C1475.71,626.89,1491.19,615.94,1494.87,613.375z"/>
<path style="fill:#4887C3;" d="M1512.91,503.671c3.71-1.366,7.27-2.335,11.15-3.05c0.6,4.323,8.88,11.279,12.12,14.415l2.81,1.455
	l6.62,5.101c-1.12,1.612-3.83,4.64-4.41,6.378c-0.41,1.197,0.65,6.03,0.8,7.485c0.6,5.808,3.82,29.24,1.78,33.171l-15.52-4.333
	l-16.03-4.012l-8.21,48.386l-9.15,4.708l-15.98-64.185l5.64-2.736c1.96-1.044,7.28-3.292,8.57-4.84c1.3-1.56,2.35-7.012,3.01-9.092
	l8.3-24.903C1507.04,507.279,1510.51,504.932,1512.91,503.671z"/>
<path style="fill:#DDECF1;" d="M1512.91,503.671c3.71-1.366,7.27-2.335,11.15-3.05c0.6,4.323,8.88,11.279,12.12,14.415l2.81,1.455
	l6.62,5.101c-1.12,1.612-3.83,4.64-4.41,6.378c-0.41,1.197,0.65,6.03,0.8,7.485c0.6,5.808,3.82,29.24,1.78,33.171l-15.52-4.333
	l-16.03-4.012c2.42-16.265,3.18-32.185,2.8-48.602L1512.91,503.671z"/>
<path style="fill:#E4E5EC;" d="M1512.91,503.671c3.71-1.366,7.27-2.335,11.15-3.05c0.6,4.323,8.88,11.279,12.12,14.415l-7.38,6.581
	c-1.86,1.458-2.45,4.1-4.73,4.887c-3.7-4.637-5.01-10.127-9.04-14.825L1512.91,503.671z"/>
<path style="fill:#D8381D;" d="M1536.18,515.036l2.81,1.455l6.62,5.101c-1.12,1.612-3.83,4.64-4.41,6.378
	c-0.41,1.197,0.65,6.03,0.8,7.485c0.6,5.808,3.82,29.24,1.78,33.171l-15.52-4.333l5.22-37.54l-4.68-5.136L1536.18,515.036z"/>
<path style="fill:#E4E5EC;" d="M1512.23,560.281l16.03,4.012l15.52,4.333l18.18,4.588c8.51,2.111,17.84,3.777,26.04,6.828
	c8.03,1.787,20.63,3.312,27.59,7.525c-1.68,4.449-3.06,8.703-4.08,13.356l-9.54,47.797c-2.29,0.907-5.15,1.392-6.42,3.537
	c-2.55,3.454-12.66,4.711-13.49,7.263l8.99,21.575c0.97,2.661,2.51,5.804,2.32,8.648c-3.1,0.24-5.73,0.86-8.69,1.824l-4.7,23.439
	c-1.07,5.52-1.84,11.859-4.36,16.91c-3.96,1.557-8.28,2.882-11.94,5.059c-4.87-0.471-10.08-2.162-14.87-3.28
	c-5.61-1.309-12.14-2.231-17.35-4.577c-2.1-4.287-6.3-7.555-9.74-10.757c-8.24-7.657-17.35-14.632-25-22.843
	c-0.79-6.255,1.01-13.4,2.13-19.518c1.29-7.03,2.08-14.113,2.8-21.221l14.43-5.153c2.25-0.868,9.36-3.295,10.68-4.925
	c1.39-1.704,2.53-5.686,3.48-7.812l-0.88-1.778c1.99-2.777,2.18-3.753,1.77-7.111c-4.6-3.908-11.76-6.23-17.48-7.965
	c-3.57-0.393-7.1-0.717-10.57-1.676c-0.29-3.231,0.44-6.509,0.94-9.692L1512.23,560.281z"/>
<path style="fill:#F9BB80;" d="M1582.06,659.52l8.99,21.575c0.97,2.661,2.51,5.804,2.32,8.648c-3.1,0.24-5.73,0.86-8.69,1.824
	c-12.44,3.858-32.72,12.495-45.37,6.236c-2.13-1.055-4.73-3.476-5.37-5.832c-1.04-3.836-0.43-12.133,1.52-15.569
	c1.92-3.407,5.99-5.586,9.4-7.229c6.93-3.342,14.51-5.774,22.08-7.183c4.82-0.898,9.76-0.93,14.5-2.282L1582.06,659.52z"/>
<path style="fill:#FEFEFE;" d="M1512.23,560.281l16.03,4.012l15.52,4.333l18.18,4.588c8.51,2.111,17.84,3.777,26.04,6.828
	c8.03,1.787,20.63,3.312,27.59,7.525c-1.68,4.449-3.06,8.703-4.08,13.356l-0.59-0.003c-5.83-0.17-12.13-2.757-17.8-4.198
	l-48.35-11.967c-5.42-1.296-11.68-3.605-17.14-4.181c-2.03-0.213-4,1.684-5.37,2.927c-1.84,1.664-1.97,4.97-2.33,7.33
	c-0.89,5.902-1.38,26.477-6.28,29.204c-3.57-0.393-7.1-0.717-10.57-1.676c-0.29-3.231,0.44-6.509,0.94-9.692L1512.23,560.281z"/>
<path style="fill:#FEFEFE;" d="M1401.18,686.346l0.57-0.174l0.67-1.283c-4.99-6.669-8.62-13.264-11.9-20.873l17.86-0.737
	c2.11,2.756,3.7,5.4,7.27,6.161c14.6,3.108,31.13,3.933,46.01,5.469l-3.41,74.598c-0.21,6.158-1.88,14.932-0.35,20.685
	c2.59,1.048,4.57,1.491,7.34,1.711l0.2,12.533l0.18,6.084l5.37,150.312l-55.57-0.553c-8.74,0.752-18.07,0.204-26.88,0.165
	c-3.16-0.014-6.69,0.526-9.49-1.083c-9.15-23.566-16.87-48.671-24.12-72.893c-2.92-9.724-4.12-21.208-8.54-30.293l-0.15-0.349
	c-4.33-0.538-9.11-0.144-13.5-0.154l-6.79-11.436c-11.27-16.79-25.59-26.543-45.45-30.422l-5.99-0.817
	c-4.44-5.712-8.65-11.553-15.61-14.194l0.67-3.507l3.84-16.038c6.88-5.01,12.23-10.78,17.81-17.152
	c6.95-10.271,17.1-26.429,17.98-38.728c0.37-5.223-0.78-10.647-0.89-15.926c26.29,13.503,57.41,14.279,85.51,6.017L1401.18,686.346z
	"/>
<path style="fill:#F69361;" d="M1377.65,833.201c7.27-2.017,13.8-4.442,20.54-7.852c-3.3,40.241,5.77,76.679,17.23,114.93
	c-8.74,0.752-18.07,0.204-26.88,0.165c-3.16-0.014-6.69,0.526-9.49-1.083c-9.15-23.566-16.87-48.671-24.12-72.893
	c-2.92-9.724-4.12-21.208-8.54-30.293l-0.15-0.349C1356.62,836.521,1367.44,834.974,1377.65,833.201z"/>
<path style="fill:#043A6C;" d="M1383.82,693.469l17.36-7.123l0.08,0.585c0.68,4.387,2.62,8.464,3.91,12.692
	c1.59,5.217,2.53,10.62,3.08,16.04c1.28,12.478-0.2,25.382-1.69,37.762l-5.85,44.377l-2.52,27.547
	c-6.74,3.41-13.27,5.835-20.54,7.852c-10.21,1.773-21.03,3.32-31.41,2.625c-4.33-0.538-9.11-0.144-13.5-0.154l-6.79-11.436
	c-11.27-16.79-25.59-26.543-45.45-30.422l-5.99-0.817c-4.44-5.712-8.65-11.553-15.61-14.194l0.67-3.507l3.84-16.038
	c6.88-5.01,12.23-10.78,17.81-17.152c6.95-10.271,17.1-26.429,17.98-38.728c0.37-5.223-0.78-10.647-0.89-15.926
	C1324.6,700.955,1355.72,701.731,1383.82,693.469z"/>
<path style="fill:#FEFEFE;" d="M1281.22,742.106l-0.72,51.708l-5.99-0.817c-4.44-5.712-8.65-11.553-15.61-14.194l0.67-3.507
	l3.84-16.038C1270.29,754.248,1275.64,748.478,1281.22,742.106z"/>
<path style="fill:#032E5A;" d="M1383.82,693.469l17.36-7.123l0.08,0.585c0.68,4.387,2.62,8.464,3.91,12.692
	c1.59,5.217,2.53,10.62,3.08,16.04c1.28,12.478-0.2,25.382-1.69,37.762l-5.85,44.377l-2.52,27.547
	c-6.74,3.41-13.27,5.835-20.54,7.852c1.12-10.643,3.76-21.227,5.2-31.884c3.85-28.689,6.11-59.692,3.43-88.548
	C1385.69,706.452,1385.44,699.584,1383.82,693.469z"/>
<path style="fill:#08B4B2;" d="M1203.1,777.789c18.88-1.768,37.04-2.162,55.8,1.014c6.96,2.641,11.17,8.482,15.61,14.194l5.99,0.817
	c19.86,3.879,34.18,13.632,45.45,30.422l6.79,11.436c4.39,0.01,9.17-0.384,13.5,0.154l0.15,0.349
	c4.42,9.085,5.62,20.569,8.54,30.293c7.25,24.222,14.97,49.327,24.12,72.893c-6.78,0.924-44.89,1.679-48.6-0.934
	c-1.13,0.347-3,1.174-4.13,1.168l-0.86,0.145c-4.3,0.692-8.57,0.629-12.91,0.609l-0.08,24.864l-164.25,0.112l-0.29-25.743
	c-2.09-1.25-4.28-1.184-6.65-1.333c-8.8,1.833-16.12,4.95-25.45,2.714c-7.08-1.695-13.78-5.941-17.7-12.103l-0.48,0.249
	c-3.04-4.839-6.1-10.479-6.97-16.176c-3.13-20.317,19.05-67.031,31.21-83.954c15.61-21.709,42.1-31.79,67.64-35.865l1.06-2.733
	c2.5-5.406,5.81-10.798,11.63-12.879L1203.1,777.789z"/>
<path style="fill:#36AEBC;" d="M1326.32,939.595c-4.42-0.626-9.22-0.272-13.69-0.274l0.15-74.924l9.39,31.138
	c2.73,8.584,5.89,18.641,12.17,25.298c5.33,0.554,8.48-1.44,12.89-4.097l2.4,0.618c-5.17,7.411-11.18,15.659-18.71,20.742
	l-0.47,0.331C1329.32,938.774,1327.45,939.601,1326.32,939.595z"/>
<path style="fill:#A4DBE8;" d="M1203.1,777.789c18.88-1.768,37.04-2.162,55.8,1.014c6.96,2.641,11.17,8.482,15.61,14.194
	c-28.5-3.648-56.46-2.377-84.98,0.117l1.06-2.733c2.5-5.406,5.81-10.798,11.63-12.879L1203.1,777.789z"/>
<path style="fill:#36AEBC;" d="M1098.13,928.86c5.9-2.689,11.66-1.644,17.55-5.599c10.43-7.007,14.17-23.465,18.76-34.663
	l12.81-31.339l0.17,80.074c-1.99,0.929-3.98,0.85-6.14,0.916c-8.8,1.833-16.12,4.95-25.45,2.714
	C1108.75,939.268,1102.05,935.022,1098.13,928.86z"/>
<path style="fill:#FEFEFE;" d="M1349.63,917.354c2.35-3.008,3.6-5.895,4.9-9.467c-2.72-25.015-10.4-49.07-21.25-71.707l13.11-0.005
	c4.42,9.085,5.62,20.569,8.54,30.293c7.25,24.222,14.97,49.327,24.12,72.893c-6.78,0.924-44.89,1.679-48.6-0.934l0.47-0.331
	C1338.45,933.013,1344.46,924.765,1349.63,917.354z"/>
<path style="fill:#F55C2D;" d="M236.51,461.22l0.625,0.679c1.732,1.957,2.574,4.66,4.154,6.783
	c6.092,8.184,14.703,12.734,24.785,13.629c1.797,0.159,3.564,0.243,5.366,0.111l1.72,8.649l0.914,6.941l1.816,6.34
	c5.97,1.577,11.298,3.86,16.996,6.155c0.887,0.356,3.754,1.224,4.193,1.84c10.977,4.333,24.07,12.336,30.272,22.773
	c-0.414,5.815,0.291,11.954-0.582,17.678c-0.67,4.397-2.752,8.127-3.755,12.384c-1.063,4.509-0.27,10.666-0.02,15.289
	c8.758,0.094,18.071,0.848,26.752-0.268c2.7-0.854,5.314-0.659,8.107-0.584c6.878,4.06,29.508-3.626,32.183,4.522
	c-0.554,3.846-3.612,7.199-5.64,10.44l-13.841,22.35l-17.16,29.165c3.506,3.574,6.646,6.687,6.544,12.085
	c-0.058,3.012-1.058,5.698-2.134,8.475c-4.091,4.676-7.83,7.492-13.889,9.159c-1.74,0.479-4.176,0.584-5.633,1.578
	c-0.9,1.226-3.065,4.978-4.356,5.336l-2.31,4.4c-4.794,0.034-9.749-0.921-13.784,1.758c-5.917,2.252-17.418,0.904-23.897,0.916
	l-62.12-0.081l-29.074,0.317c-3.102,0.048-8.608-0.573-11.233,1.031l-6.695,1.346c-5.218,0.288-15.582-14.181-19.425-18.107
	l-7.486,5.125c-16.658-13.423-32.24-27.11-46.298-43.318c-7.77-8.958-15.442-18.88-20.076-29.882c-0.9-2.138,0.576-5.343,1.47-7.46
	c3.401-8.056,8.997-15.296,14.423-22.071c24.785-30.948,58.846-51.87,94.959-67.042c5.482-4.529,18.025-5.138,25.055-5.635
	l0.221-0.456c1.563-3.362,3.732-8.936,2.521-12.406c2.958-3.25,3.786-15.712,4.598-20.378L236.51,461.22z"/>
<path style="fill:#F9A766;" d="M178.839,662.602c0.983,2.641,1.86,5.285,3.488,7.613l-0.228,3.118
	c2.539,2.685,5.126,5.483,9.058,5.696c3.056,0.165,5.997-1.35,8.794-2.37c2.33-0.849,5.454-2.234,7.916-2.444
	c6.312-0.537,18.776,6.832,24.164,10.283l-0.215,5.224l-29.074,0.317c-3.102,0.048-8.608-0.573-11.233,1.031l-6.695,1.346
	c-5.218,0.288-15.582-14.181-19.425-18.107L178.839,662.602z"/>
<path style="fill:#E4E5EC;" d="M236.51,461.22l0.625,0.679c1.732,1.957,2.574,4.66,4.154,6.783
	c6.092,8.184,14.703,12.734,24.785,13.629c1.797,0.159,3.564,0.243,5.366,0.111l1.72,8.649l0.914,6.941l1.816,6.34
	c5.97,1.577,11.298,3.86,16.996,6.155c0.887,0.356,3.754,1.224,4.193,1.84c-0.288,5.788,5.97,11.755,5.924,18.32
	c-2.203,3.673-7.789,6.452-11.864,7.463c-10.504,2.606-20.671-2.259-29.414-7.518l-3.782,2.722
	c-6.907,4.68-14.466,6.591-22.75,4.876c-14.357-2.973-25.364-16.821-32.812-28.549c5.482-4.529,18.025-5.138,25.055-5.635
	l0.221-0.456c1.563-3.362,3.732-8.936,2.521-12.406c2.958-3.25,3.786-15.712,4.598-20.378L236.51,461.22z"/>
<path style="fill:#F69361;" d="M236.51,461.22l0.625,0.679c1.732,1.957,2.574,4.66,4.154,6.783
	c6.092,8.184,14.703,12.734,24.785,13.629c1.797,0.159,3.564,0.243,5.366,0.111l1.72,8.649l0.914,6.941l1.816,6.34
	c0.347,2.469,1.056,6.158,0.062,8.488c-1.447,3.393-5.523,4.903-8.786,5.96c-8.64,2.797-18.607,1.027-26.501-3.047
	c-4.239-2.188-11.746-6.982-13.229-11.727l0.221-0.456c1.563-3.362,3.732-8.936,2.521-12.406c2.958-3.25,3.786-15.712,4.598-20.378
	L236.51,461.22z"/>
<path style="fill:#F55C2D;" d="M236.51,461.22l0.625,0.679c1.732,1.957,2.574,4.66,4.154,6.783
	c6.092,8.184,14.703,12.734,24.785,13.629c1.797,0.159,3.564,0.243,5.366,0.111l1.72,8.649l0.914,6.941l-1.252,1.588
	c-1.909-0.281-3.817-0.611-5.659-1.203c-15.517-4.99-25.088-13.198-32.387-27.611L236.51,461.22z"/>
<path style="fill:#D8381D;" d="M160.425,628.232c-4.467-1.096-6.914-5.705-10.181-8.901c-8.417-8.235-19.031-11.118-30.444-11.957
	c8.185-3.203,16.618-5.946,24.609-9.609c17.321-7.939,32.627-18.166,47.265-30.314c-3.447,9.787-5.012,19.147-0.237,28.915
	c6.596,13.494,19.534,25.116,33.723,29.938l10.72,2.745c-11.31,7.983-23.266,14.629-35.249,21.511
	c-3.2,1.837-6.624,4.85-10.115,5.851l-0.747-0.435l-7.442,14.239c-1.628-2.328-2.505-4.972-3.488-7.613
	C173.161,651.402,167.786,638.382,160.425,628.232z"/>
<path style="fill:#FEFEFE;" d="M160.425,628.232c-3.647-7-7.664-12.339-13.37-17.707c11.739-4.631,21.292-10.169,30.446-18.945
	c1.183,11.199,4.593,20.224,8.404,30.722c2.601,7.167,5.911,15.895,5.944,23.593c0.014,3.24-1.196,6.947-2.08,10.081l-7.442,14.239
	c-1.628-2.328-2.505-4.972-3.488-7.613C173.161,651.402,167.786,638.382,160.425,628.232z"/>
<path style="fill:#92B8E2;" d="M357.853,579.619c6.878,4.06,29.508-3.626,32.183,4.522c-0.554,3.846-3.612,7.199-5.64,10.44
	l-13.841,22.35l-17.16,29.165c3.506,3.574,6.646,6.687,6.544,12.085c-0.058,3.012-1.058,5.698-2.134,8.475
	c-4.091,4.676-7.83,7.492-13.889,9.159c-1.74,0.479-4.176,0.584-5.633,1.578c-0.9,1.226-3.065,4.978-4.356,5.336l-2.31,4.4
	c-4.794,0.034-9.749-0.921-13.784,1.758c-5.917,2.252-17.418,0.904-23.897,0.916l-62.12-0.081l0.215-5.224
	c4.538-4.256,8.554-12.064,12.018-17.365l37.61-59.378c4.362-6.834,8.747-15.84,14.335-21.576c1.412-1.449,5.878-5.222,7.744-5.747
	c1.322-0.372,4.063,0.008,5.508,0.011l13.748,0.028c8.758,0.094,18.071,0.848,26.752-0.268
	C352.446,579.349,355.06,579.544,357.853,579.619z"/>
<path style="fill:#F9A766;" d="M338.283,677.393c-4.588-0.949-10.387-0.464-14.353-3.171c-2.215-1.512-5.679-3.846-6.23-6.399
	l2.222,0.062l0.556-0.774l-3.245-2.163l0.023-0.748c2.769,0.396,4.443,0.479,7.127-0.644c-1.136-1.439-2.053-2.15-2.239-3.999
	l3.929-0.315l-0.375-1.447c0.909-2.235,2.393-2.846,4.416-4.111c3.86-2.415,8.256-4.114,12.731-4.954
	c4.301-0.808,7.043,0.197,10.55-2.634c3.506,3.574,6.646,6.687,6.544,12.085c-0.058,3.012-1.058,5.698-2.134,8.475
	c-4.091,4.676-7.83,7.492-13.889,9.159C342.176,676.294,339.74,676.399,338.283,677.393z"/>
<path style="fill:#DDECF1;" d="M357.853,579.619c6.878,4.06,29.508-3.626,32.183,4.522c-0.476,0.321-1.641,1.33-2.131,1.434
	c-4.263,0.898-10.831-0.168-15.38-0.089l-51.171,0.966c-1.891,0.01-10.538-0.625-11.756,0.063
	c-2.713,1.531-54.97,85.41-61.717,95.593l86.046,0.621l-2.31,4.4c-4.794,0.034-9.749-0.921-13.784,1.758
	c-5.917,2.252-17.418,0.904-23.897,0.916l-62.12-0.081l0.215-5.224c4.538-4.256,8.554-12.064,12.018-17.365l37.61-59.378
	c4.362-6.834,8.747-15.84,14.335-21.576c1.412-1.449,5.878-5.222,7.744-5.747c1.322-0.372,4.063,0.008,5.508,0.011l13.748,0.028
	c8.758,0.094,18.071,0.848,26.752-0.268C352.446,579.349,355.06,579.544,357.853,579.619z"/>
<path style="fill:#043A6C;" d="M357.805,666.656c1.645,4.186,3.052,8.368,6.55,11.385c1.815,0.323,3.85,0.468,5.35,1.601
	l1.575-0.804l-3.25,59.384l2.645,1.25l22.845,2.228l41.158,1.349c8.954,0.023,18.849,0.602,27.346-2.692
	c8.655-3.354,14.507-10.696,22.51-14.178c2.714,0.036,8.868-0.704,11.166,0.149c3.207,1.19,7.064,5.511,9.603,7.865
	c4.286,2.944,9.527,7.015,14.693,7.983c3.475,0.651,7.929,0.058,11.466-0.015l7.222-0.653l-1.26,55.955
	c-16.649,0.457-33.62,0.372-45.89,13.467c-7.118,7.598-11.884,17.63-16.425,26.896c-1.775,3.62-4.183,7.207-5.439,11.011
	l-10.256,25.139c-2.402,6.111-5.525,12.974-6.209,19.534c-0.776,7.441,0.674,14.443,3.224,21.414
	c2.994,8.186,7.367,15.352,13.318,21.736c-0.513,0.346-0.875,0.616-1.495,0.741c-3.31,0.667-7.714,0.26-11.131,0.323
	c-6.174,0.115-24.934,2.042-29.297-0.767l-1.706,1.13l-39.064,0.415c-5.87,0.068-13.025,0.953-18.66-0.28l-0.624-3.229l-1.069,3.319
	l-53.147,1.472c-3.772-0.828-9.83,0.086-13.785,0.222l-27.573,0.391l-8.607-75.515l-30.173-0.318
	c-19.188-1.154-38.555-4.946-56.892-10.666l-23.397-9.744l3.675-14.168l18.309-81.638l6.304-22.976
	c1.897-6.116,4.446-12.416,5.292-18.752l-0.589-0.527c1.171-5.229,3.348-10.091,5.391-15.023c2.625-1.604,8.131-0.983,11.233-1.031
	l29.074-0.317l62.12,0.081c6.479-0.012,17.98,1.336,23.897-0.916c4.035-2.679,8.99-1.724,13.784-1.758l2.31-4.4
	c1.291-0.358,3.456-4.11,4.356-5.336c1.457-0.994,3.893-1.099,5.633-1.578C349.975,674.148,353.714,671.332,357.805,666.656z"/>
<path style="fill:#032146;" d="M186.707,706.62c5.658,0.34,11.303,2.318,16.799,3.645c6.845,1.653,13.821,2.729,20.767,3.853
	c-10.777,10.913-20.034,24.367-27.671,37.657c-10.051,17.492-18.43,35.9-26.861,54.208c-2.937,6.379-5.026,13.384-8.468,19.492
	c-1.142,2.026-2.46,3.33-4.471,4.511l18.309-81.638l6.304-22.976C183.312,719.256,185.861,712.956,186.707,706.62z"/>
<path style="fill:#F55C2D;" d="M231.816,689.722l62.12,0.081c6.479-0.012,17.98,1.336,23.897-0.916
	c0.843,4.523,4.508,18.023,2.988,21.37c-32.898,6.116-63.341,7.509-96.548,3.861c-6.946-1.124-13.922-2.2-20.767-3.853
	c-5.496-1.327-11.141-3.305-16.799-3.645l-0.589-0.527c1.171-5.229,3.348-10.091,5.391-15.023c2.625-1.604,8.131-0.983,11.233-1.031
	L231.816,689.722z"/>
<path style="fill:#FEFEFE;" d="M357.805,666.656c1.645,4.186,3.052,8.368,6.55,11.385c1.815,0.323,3.85,0.468,5.35,1.601
	l1.575-0.804l-3.25,59.384l2.645,1.25l-2.905,195.521l-1.069,3.319l-53.147,1.472c-3.772-0.828-9.83,0.086-13.785,0.222
	l-27.573,0.391l-8.607-75.515c19.006-0.257,39.094-3.502,57.215-9.287l7.602-2.684c1.287-9.38,0.181-20.146-0.039-29.629
	l-3.739-72.278c-1.111-13.183-3.511-26.571-3.791-39.76l-0.016-0.987c1.52-3.347-2.145-16.847-2.988-21.37
	c4.035-2.679,8.99-1.724,13.784-1.758l2.31-4.4c1.291-0.358,3.456-4.11,4.356-5.336c1.457-0.994,3.893-1.099,5.633-1.578
	C349.975,674.148,353.714,671.332,357.805,666.656z"/>
<path style="fill:#D8381D;" d="M357.805,666.656c1.645,4.186,3.052,8.368,6.55,11.385c1.815,0.323,3.85,0.468,5.35,1.601
	c-10.713,7.898-25.244,7.617-38.088,7.487l2.31-4.4c1.291-0.358,3.456-4.11,4.356-5.336c1.457-0.994,3.893-1.099,5.633-1.578
	C349.975,674.148,353.714,671.332,357.805,666.656z"/>
<path style="fill:#F69361;" d="M263.589,864.882c19.006-0.257,39.094-3.502,57.215-9.287l-7.25,84.189
	c-3.772-0.828-9.83,0.086-13.785,0.222l-27.573,0.391L263.589,864.882z"/>
<path style="fill:#08B4B2;" d="M370.675,739.472l22.845,2.228l41.158,1.349c8.954,0.023,18.849,0.602,27.346-2.692
	c8.655-3.354,14.507-10.696,22.51-14.178c2.714,0.036,8.868-0.704,11.166,0.149c3.207,1.19,7.064,5.511,9.603,7.865
	c4.286,2.944,9.527,7.015,14.693,7.983c3.475,0.651,7.929,0.058,11.466-0.015l7.222-0.653l-1.26,55.955
	c-16.649,0.457-33.62,0.372-45.89,13.467c-7.118,7.598-11.884,17.63-16.425,26.896c-1.775,3.62-4.183,7.207-5.439,11.011
	l-10.256,25.139c-2.402,6.111-5.525,12.974-6.209,19.534c-0.776,7.441,0.674,14.443,3.224,21.414
	c2.994,8.186,7.367,15.352,13.318,21.736c-0.513,0.346-0.875,0.616-1.495,0.741c-3.31,0.667-7.714,0.26-11.131,0.323
	c-6.174,0.115-24.934,2.042-29.297-0.767l-1.706,1.13l-39.064,0.415c-5.87,0.068-13.025,0.953-18.66-0.28l-0.624-3.229
	L370.675,739.472z"/>
<path style="fill:#FEFEFE;" d="M427.824,936.957c1.883-11.816,4.963-23.331,7.791-34.943l15.071-55.713
	c3.43-11.109,6.714-23.817,12.128-34.132l5.604,28.186l1.252,8.482l-10.256,25.139c-2.402,6.111-5.525,12.974-6.209,19.534
	c-0.776,7.441,0.674,14.443,3.224,21.414c2.994,8.186,7.367,15.352,13.318,21.736c-0.513,0.346-0.875,0.616-1.495,0.741
	c-3.31,0.667-7.714,0.26-11.131,0.323C450.947,937.839,432.187,939.766,427.824,936.957z"/>
<path style="fill:#08B4B2;" d="M505.303,734.193c4.286,2.944,9.527,7.015,14.693,7.983c3.475,0.651,7.929,0.058,11.466-0.015
	l7.222-0.653l-1.26,55.955c-16.649,0.457-33.62,0.372-45.89,13.467c-7.118,7.598-11.884,17.63-16.425,26.896
	c-1.775,3.62-4.183,7.207-5.439,11.011l-1.252-8.482l-5.604-28.186c0.189-5.309,3.179-11.631,5.147-16.573
	C476.763,773.5,488.354,751.081,505.303,734.193z"/>
<path style="fill:#017867;" d="M505.303,734.193c4.286,2.944,9.527,7.015,14.693,7.983c3.475,0.651,7.929,0.058,11.466-0.015
	c-1.574,2.223-3.594,5.488-6.453,6.019c-3.531,0.655-8.497-0.509-11.674,0.451c-0.706,0.214-3.832,4.667-4.57,5.653
	c-11.788,15.744-20.301,33.031-28.015,51.049c-2.622,6.125-5.229,12.487-7.19,18.855c-1.325,4.303-2.407,12.986-5.142,16.167
	l-5.604-28.186c0.189-5.309,3.179-11.631,5.147-16.573C476.763,773.5,488.354,751.081,505.303,734.193z"/>
<path style="fill:#DDECF1;" d="M397.341,476.827c-3.34-5.767-10.773-11.291-15.386-16.389
	c-16.792-18.558-33.302-38.379-43.54-61.435c-11.992-27.007-16.829-57.354-5.821-85.632c9.603-24.666,27.996-41.433,51.64-52.53
	c15.341-7.2,31.709-12.071,47.216-18.924c25.69-11.352,45.973-26.761,56.357-53.597c5.801-14.989,9.41-30.707,15.335-45.682
	c9.934-25.11,28.036-42.566,52.702-53.302c21.341-9.288,44.173-11.018,67.115-8.528c58.354,6.334,109.395,36.099,161.197,61.406
	c21.972,10.735,44.297,19.779,67.062,28.645c-30.555,20.317-56.589,42.244-68.335,78.335l-20.287-0.085l-0.161-12.589
	l-138.601,0.049l-0.191,86.892l-32.709,0.033l-0.018-29.7c-0.005-2.783,0.646-8.227-0.523-10.576l-129.357,0.155l0.082,40.823
	l-41.745-0.431c0.039,17.617-1.479,139.953,0.941,145.482l-1.646,1.174L397.341,476.827z"/>
<path style="fill:#A4DBE8;" d="M420.314,469.247c-2.42-5.529-0.902-127.865-0.941-145.482l41.745,0.431l-0.082-40.823l129.357-0.155
	c1.169,2.349,0.518,7.793,0.523,10.576l0.018,29.7l32.709-0.033l0.191-86.892l138.601-0.049l0.161,12.589l0.141,26.684l18.99,0.062
	l0.08,0.749l0.562,132.335l-18.001-0.073l-80.944,0.247l-0.011,43.524l-0.023,21.697c0.034,4.313,0.667,6.616-1.933,10.182
	c-3.814,4.337-12.135,16.171-17.117,17.586c-2.2,3.405-5.176,7.121-6.571,10.914l-30.03-13.708
	c-1.521-0.343-2.418-0.459-3.952-0.197l-33.999,58.661c-5.138-4.8-11.153-8.75-16.055-13.768
	c-7.624-7.805-14.167-17.193-20.828-25.84l-16.637-20.306c-4.333-10.575-23.768-19.983-33.463-24.822
	c-3.337-2.067-5.544-4.838-7.994-7.849l-6.379,0.042l0.488,2.659c-2.814,3.051-5.863,5.504-10.163,5.957l-0.496,0.01
	c-3.44,0.849-7.618,0.335-11.13-0.06c-11.903-1.339-24.149-6.628-31.723-16.048c-2.952,0.539-4.709,0.311-6.736,2.595L427.56,460
	C424.728,462.899,422.518,465.848,420.314,469.247z"/>
<path style="fill:#F69361;" d="M627.739,499.308l0.987-24.367c0.23-3.252,0.22-6.859,1.787-9.779l2.221-0.567
	c3.302,3.086,3.344,11.203,4.028,15.797c5.259-6.503,7.71-14.568,12.59-21.233c1.729-2.361,3.189-3.394,6.044-3.841
	c2.56,2.043,2.963,3.081,4.167,6.015c1.156,0.825,4.206-0.823,6.497-0.925c2.447,2.414,3.979,3.304,7.437,3.714l0.927,0.1
	c2.364,2.794,6.767,5.563,7.521,9.108l-17.605,28.772c-2.2,3.405-5.176,7.121-6.571,10.914L627.739,499.308z"/>
<path style="fill:#DDECF1;" d="M781.807,276.604l0.562,132.335l-18.001-0.073l-0.241-132.209L781.807,276.604z"/>
<path style="fill:#043A6C;" d="M440.179,438.4c-8.517-12.576-15.265-31.21-15.484-46.317c-0.089-6.122,0.56-12.593,5.188-17.14
	c6.232-6.123,12.733-3.753,20.407-3.629c-0.022-2.296-0.782-4.687-0.557-6.942c0.313-3.138,2.238-6.477,4.733-8.369
	c13.881-10.528,37.314,0.194,52.521,2.22c9.471,1.262,14.442-1.255,21.73-6.831c0.124,8.116,0.937,16.34-2.552,23.905
	c-2.566,5.562-6.549,8.751-12.234,10.765l-0.921,0.321l5.482,39.074c2.384,8.674,3.627,20.511-0.841,28.628
	c-2.837,5.155-7.226,7.899-12.816,9.402c-3.295,0.885-6.62,1.486-10.024,1.7l-6.379,0.042l0.488,2.659
	c-2.814,3.051-5.863,5.504-10.163,5.957l-0.496,0.01c-3.44,0.849-7.618,0.335-11.13-0.06c-11.903-1.339-24.149-6.628-31.723-16.048
	C437.84,451.165,439.652,445.443,440.179,438.4z"/>
<path style="fill:#F9A766;" d="M440.145,429.188c-1.858-2.626-4.38-5.215-5.747-8.106c-1.614-3.415-2.917-9.225-1.269-12.845
	c1.378-3.029,3.489-3.559,6.319-4.417c1.698,0.398,3.446,0.537,4.797,1.677c6.115,5.157,6.147,14.901,6.708,22.327l-1.285,1.546
	c-2.408-0.205-5.769-0.931-8.065-0.084L440.145,429.188z"/>
<path style="fill:#F55C2D;" d="M450.953,427.824c2.173,12.065,6.379,23.996,16.954,31.287c6.342,4.372,12.957,5.773,20.525,6.118
	l0.488,2.659c-2.814,3.051-5.863,5.504-10.163,5.957l-0.496,0.01c-2.174-1.487-4.809-2.083-7.144-3.31
	c-15.787-8.297-24.474-24.901-29.514-41.259c2.296-0.847,5.657-0.121,8.065,0.084L450.953,427.824z"/>
<path style="fill:#F69361;" d="M440.145,429.188l1.458,0.098c5.04,16.358,13.727,32.962,29.514,41.259
	c2.335,1.227,4.97,1.823,7.144,3.31c-3.44,0.849-7.618,0.335-11.13-0.06c-11.903-1.339-24.149-6.628-31.723-16.048
	c2.432-6.582,4.244-12.304,4.771-19.347C440.773,435.285,440.424,432.318,440.145,429.188z"/>
<path style="fill:#F9A766;" d="M518.492,425.457c-0.056,2.42,0.246,4.986-1.281,6.987c-5.263,0.894-11.578-4.655-17.51-4.939
	c-11.197-0.538-24.379,9.407-35.292,3.47c-8.721-4.744-10.984-21.55-13.635-30.342c3.54-1.313,7.538-2.731,10.382-5.273
	c5.251-4.694,5.39-9.951,5.685-16.555c14.169,4.874,30.507,10.445,45.627,7.681l0.542-0.103L518.492,425.457z"/>
<path style="fill:#92B8E2;" d="M851.218,170.859l44.622-24.944c-0.055-3.635-0.479-7.786,0.518-11.289l0.147-0.466l0.238,11.271
	l40.73-0.167l54.106,29.868c20.311,15.792,38.651,31.221,51.281,54.177c3.5,6.35,5.9,13.207,8.78,19.843l20.96-0.038l-0.11,25.641
	l-1.23,1.766l-25.44-0.053l-0.59,132.416l63.1-0.135l32.11,0.093l0.19,44.218l-26.72-0.139l-1.11,2.07l-3.96,44.208l-34.42-0.001
	l-70.86-0.344l-182.019-0.172l-70.579,0.037l-37.293-0.045l-0.002-46.12l-30.254,0.083l0.011-43.524l80.944-0.247l18.001,0.073
	l-0.562-132.335l-0.08-0.749l-18.99-0.062l-0.141-26.684l20.287,0.085C794.629,213.103,820.663,191.176,851.218,170.859z"/>
<path style="fill:#FEFEFE;" d="M987.053,281.878l1.327-0.009c7.287-0.005,14.57,1.637,19.82,7.057c3.3,3.412,6.16,8.397,7.17,13.063
	c1.56,7.216,0.39,17.194,0.36,24.669l-0.42,59.116l-20.73,0.003l-29.249,0.214l0.36-54.289c0-9.003-1.779-22.789,0.955-31.192
	c0.684-2.099,1.389-4.119,2.52-6.029C973.235,287.604,979.479,283.821,987.053,281.878z"/>
<path style="fill:#FEFEFE;" d="M912.432,281.905l1.224-0.036c7.571-0.165,14.441,1.882,19.894,7.375
	c3.237,3.26,6.097,8.227,7.049,12.736c1.651,7.825,0.533,18.056,0.539,26.154l-0.075,57.849l-20.177,0.095l-30.427,0.212l0.052-49.4
	c0.023-11.448-2.463-31.521,2.929-41.441C897.607,287.781,904.365,284.183,912.432,281.905z"/>
<path style="fill:#FEFEFE;" d="M834.154,281.889l4.077-0.094c7.937-0.03,14.482,1.859,20.146,7.697
	c3.259,3.36,5.595,7.716,6.488,12.306c1.637,8.418,0.633,18.736,0.648,27.385l-0.009,56.771l-17.617-0.047l-33.104,0.022
	l-0.029-47.042l-0.156-24.951c-0.027-6.469-0.419-13.377,2.531-19.323C820.673,287.468,826.952,284.263,834.154,281.889z"/>
<path style="fill:#043A6C;" d="M1051.64,249.152l20.96-0.038l-0.11,25.641c-0.8,0.47-1.6,0.841-2.53,0.971
	c-7.98,1.119-17.61-0.037-25.74-0.024l-64.137,0.15l-129.966-0.085l-68.39,0.088l-18.99-0.062l-0.141-26.684l20.287,0.085
	L1051.64,249.152z"/>
<path style="fill:#92B8E2;" d="M851.218,170.859l44.622-24.944c-0.055-3.635-0.479-7.786,0.518-11.289l0.147-0.466l0.238,11.271
	l40.73-0.167l54.106,29.868c20.311,15.792,38.651,31.221,51.281,54.177c3.5,6.35,5.9,13.207,8.78,19.843l-268.757,0.042
	C794.629,213.103,820.663,191.176,851.218,170.859z"/>
<path style="fill:#F9BB80;" d="M1108.33,408.749l32.11,0.093l0.19,44.218l-26.72-0.139l-1.11,2.07l-3.96,44.208l-34.42-0.001
	l-70.86-0.344l-182.019-0.172l-70.579,0.037l-37.293-0.045l-0.002-46.12l-30.254,0.083l0.011-43.524l80.944-0.247l18.001,0.073
	l262.861-0.055L1108.33,408.749z"/>
<path style="fill:#F9A766;" d="M713.667,452.554l398.063,0.083l1.07,2.354l-3.96,44.208l-34.42-0.001l-70.86-0.344l-182.019-0.172
	l-70.579,0.037l-37.293-0.045L713.667,452.554z"/>
<path style="fill:#FEFEFE;" d="M428.672,460.342c2.027-2.284,3.784-2.056,6.736-2.595c7.574,9.42,19.82,14.709,31.723,16.048
	c3.512,0.395,7.69,0.909,11.13,0.06l0.496-0.01c4.3-0.453,7.349-2.906,10.163-5.957l-0.488-2.659l6.379-0.042
	c2.45,3.011,4.657,5.782,7.994,7.849c9.695,4.839,29.13,14.247,33.463,24.822l16.637,20.306c6.661,8.647,13.204,18.035,20.828,25.84
	c4.902,5.018,10.917,8.968,16.055,13.768l33.999-58.661c1.534-0.262,2.431-0.146,3.952,0.197l30.03,13.708
	c1.395-3.793,4.371-7.509,6.571-10.914c4.982-1.415,13.303-13.249,17.117-17.586c2.324,4.104,0.376,12.15,0.171,16.817
	c-0.45,10.239-0.795,23.765,0.723,33.793l0.22,262.126l68.621-0.049l42.952,0.201c-6.99,24.333-26.835,73-13.424,96.527
	c1.692,2.968,4.172,5.79,6.834,7.939c10.931,8.286,22.349,12.255,35.596,15.2l2.136,1.271l-0.069,2.089
	c-0.171,2.483,0.119,8.525-1.418,10.188l-43.429,0.247c-7.136,0.146-35.252,2.652-39.838-0.209l-3.579,4.139
	c-3.095,2.597-5.714,4.429-9.575,5.679l-0.526,0.174c-3.913,1.255-8.544,0.886-12.609,0.805l-22.586-0.847l-0.389,25.019
	l-1.356,0.232c-5.83,0.504-12.154,0.026-18.022,0.026l-35.396,0.051l-96.965,0.042l-20.491,0.005c-1.85,0-5.492,0.478-7.163,0.001
	c-0.368-0.105-1.267-1.029-1.615-1.312l-0.941-25.559l-2.603-0.957c-9.1,0.813-28.68,4.251-35.912-1.221l-1.057-0.273
	c-5.951-6.384-10.324-13.55-13.318-21.736c-2.55-6.971-4-13.973-3.224-21.414c0.684-6.56,3.807-13.423,6.209-19.534l10.256-25.139
	c1.256-3.804,3.664-7.391,5.439-11.011c4.541-9.266,9.307-19.298,16.425-26.896c12.27-13.095,29.241-13.01,45.89-13.467l1.26-55.955
	l-7.222,0.653c-3.537,0.073-7.991,0.666-11.466,0.015c-5.166-0.968-10.407-5.039-14.693-7.983c-2.539-2.354-6.396-6.675-9.603-7.865
	c-2.298-0.853-8.452-0.113-11.166-0.149c-8.003,3.482-13.855,10.824-22.51,14.178c-8.497,3.294-18.392,2.715-27.346,2.692
	L393.52,741.7l-22.845-2.228l-2.645-1.25l3.25-59.384l-1.575,0.804c-1.5-1.133-3.535-1.278-5.35-1.601
	c-3.498-3.017-4.905-7.199-6.55-11.385c1.076-2.777,2.076-5.463,2.134-8.475c0.102-5.398-3.038-8.511-6.544-12.085l17.16-29.165
	l13.841-22.35c2.028-3.241,5.086-6.594,5.64-10.44c-2.675-8.148-25.305-0.462-32.183-4.522l-7.46-37.398
	c-2.118-11.965-5.236-23.869-0.254-35.554c6.966-16.336,32.033-23.789,47.202-29.84l21.327-6.406l1.646-1.174
	c2.204-3.399,4.414-6.348,7.246-9.247L428.672,460.342z"/>
<path style="fill:#043A6C;" d="M536.268,497.858l16.637,20.306c6.661,8.647,13.204,18.035,20.828,25.84
	c4.902,5.018,10.917,8.968,16.055,13.768l33.999-58.661c1.534-0.262,2.431-0.146,3.952,0.197l30.03,13.708
	c-5.126,14.714-12.207,29.081-18.266,43.466l-16.163,37.804c-3.421,7.736-6.716,15.859-11.141,23.087
	c-2.512,4.102-5.398,8.11-9.829,10.264c-3.178,1.545-7.678,2.589-11.063,1.319c-6.183-2.319-12.4-6.335-18.171-9.544l-34.491-19.797
	l-1.874-73.505C536.549,516.87,535.289,507.031,536.268,497.858z"/>
<path style="fill:#032146;" d="M569.164,757.67l-3.626-4.162c-11.394-14.928-19.809-38.222-17.185-57.021
	c1.493-10.691,8.193-20.912,16.815-27.297c11.301-8.369,23.964-10.482,37.516-8.452c2.374-5.181,4.466-9.825,9.048-13.481
	c4.812-3.839,10.612-4.421,16.562-3.658c5.448,0.698,10.803,4.077,14.096,8.401c5.554,7.293,7.907,17.687,1.97,25.546
	c-0.454,0.601-3.289,3.445-3.358,3.881c-0.085,0.543,1.429,3.731,1.679,4.436c1.053,2.968,1.651,5.994,2.035,9.116
	c1.092,8.877-0.404,18.901-1.477,27.765c0.637,11.863-3.767,28.294-11.853,37.394c-2.496,2.809-4.71,3.97-8.23,5.079
	c-0.6,0.188-4.157,0.981-4.417,1.28c-0.439,0.508-0.866,2.521-1.116,3.25l-0.885,1.504l-46.34,0.102
	C569.525,766.854,569.416,762.237,569.164,757.67z"/>
<path style="fill:#F9A766;" d="M569.164,757.67c5.837,4.619,12.007,7.824,19.473,8.791c10.858,1.407,20.517-0.841,29.179-7.653
	c6.042-4.752,16.746-17.945,17.752-25.919c-0.906-0.502-1.808-1.029-2.602-1.7c-2.097-1.771-3.379-5.25-3.563-7.927
	c-0.184-2.685,0.579-6.558,2.614-8.434c1.712-1.579,2.584-1.477,4.716-1.286c3.459,1.861,4.867,5.823,6.506,9.202
	c0.637,11.863-3.767,28.294-11.853,37.394c-2.496,2.809-4.71,3.97-8.23,5.079c-0.6,0.188-4.157,0.981-4.417,1.28
	c-0.439,0.508-0.866,2.521-1.116,3.25l-0.885,1.504l-46.34,0.102C569.525,766.854,569.416,762.237,569.164,757.67z"/>
<path style="fill:#009782;" d="M617.623,769.747c8.278,0.377,14.507,6.658,19.812,12.507c3.948,4.352,5.87,8.669,7.207,14.301
	c18.456,1.156,47.829,1.783,60.872,16.327c7.536,8.404,12.542,18.806,17.375,28.906l15.642,35.755
	c3.059,7.892,6.732,16.175,8.601,24.432c0.766,3.384,0.5,7.887,0.261,11.358c-0.432,6.255-3.45,12.179-6.861,17.323l-3.579,4.139
	c-3.095,2.597-5.714,4.429-9.575,5.679l-0.526,0.174c-3.913,1.255-8.544,0.886-12.609,0.805l-22.586-0.847l-0.389,25.019
	l-1.356,0.232c-5.83,0.504-12.154,0.026-18.022,0.026l-35.396,0.051l-96.965,0.042l-20.491,0.005c-1.85,0-5.492,0.478-7.163,0.001
	c-0.368-0.105-1.267-1.029-1.615-1.312l-0.941-25.559l-2.603-0.957c-9.1,0.813-28.68,4.251-35.912-1.221l-1.057-0.273
	c-5.951-6.384-10.324-13.55-13.318-21.736c-2.55-6.971-4-13.973-3.224-21.414c0.684-6.56,3.807-13.423,6.209-19.534l10.256-25.139
	c1.256-3.804,3.664-7.391,5.439-11.011c4.541-9.266,9.307-19.298,16.425-26.896c12.27-13.095,29.241-13.01,45.89-13.467l6.286-0.679
	c1.545-4.583,4.848-9.196,7.74-13.032c5.689-7.546,9.579-11.118,18.948-12.399l46.34-0.102L617.623,769.747z"/>
<path style="fill:#017867;" d="M470.804,936.933c3.051-8.4,9.749-16.637,13.746-24.914c6.082-12.599,12.137-25.898,16.977-39.024
	l6.438-20.246c0.283,8.315,1.582,83.701,1.038,84.248c-0.758,0.762-1.285,0.889-2.287,1.157
	C497.616,938.967,478.036,942.405,470.804,936.933z"/>
<path style="fill:#017867;" d="M691.657,940.606c-0.968-8.16-0.236-17.126-0.506-25.401c-0.677-20.699-2.175-42.199-1.294-62.85
	c6.015,17,12.113,32.594,20.648,48.621c3.399,6.382,6.76,13.224,11.324,18.868c4.339,5.366,10.122,10.173,15.124,14.951
	c-3.095,2.597-5.714,4.429-9.575,5.679l-0.526,0.174c-3.913,1.255-8.544,0.886-12.609,0.805L691.657,940.606z"/>
<path style="fill:#A4DBE8;" d="M617.623,769.747c8.278,0.377,14.507,6.658,19.812,12.507c3.948,4.352,5.87,8.669,7.207,14.301
	l-100.932,0.229c1.545-4.583,4.848-9.196,7.74-13.032c5.689-7.546,9.579-11.118,18.948-12.399l46.34-0.102L617.623,769.747z"/>
<path style="fill:#14588F;" d="M428.672,460.342c2.027-2.284,3.784-2.056,6.736-2.595c7.574,9.42,19.82,14.709,31.723,16.048
	c3.512,0.395,7.69,0.909,11.13,0.06l0.496-0.01c4.3-0.453,7.349-2.906,10.163-5.957l-0.488-2.659l6.379-0.042
	c2.45,3.011,4.657,5.782,7.994,7.849c9.695,4.839,29.13,14.247,33.463,24.822c-0.979,9.173,0.281,19.012,0.503,28.252l1.874,73.505
	l1.83,57.449c7.044,0.346,20.254-0.449,26.227,3.654l0.951,1.504c-0.58,2.284-0.787,3.336-2.902,4.712
	c-1.613,1.049-4.907,0.855-6.79,0.971l-16.706,1.107l4.424,70.099c-2.011,2.065-4.218,1.908-6.995,2.397l-7.222,0.653
	c-3.537,0.073-7.991,0.666-11.466,0.015c-5.166-0.968-10.407-5.039-14.693-7.983c-2.539-2.354-6.396-6.675-9.603-7.865
	c-2.298-0.853-8.452-0.113-11.166-0.149c-8.003,3.482-13.855,10.824-22.51,14.178c-8.497,3.294-18.392,2.715-27.346,2.692
	L393.52,741.7l-22.845-2.228l-2.645-1.25l3.25-59.384l-1.575,0.804c-1.5-1.133-3.535-1.278-5.35-1.601
	c-3.498-3.017-4.905-7.199-6.55-11.385c1.076-2.777,2.076-5.463,2.134-8.475c0.102-5.398-3.038-8.511-6.544-12.085l17.16-29.165
	l13.841-22.35c2.028-3.241,5.086-6.594,5.64-10.44c-2.675-8.148-25.305-0.462-32.183-4.522l-7.46-37.398
	c-2.118-11.965-5.236-23.869-0.254-35.554c6.966-16.336,32.033-23.789,47.202-29.84l21.327-6.406l1.646-1.174
	c2.204-3.399,4.414-6.348,7.246-9.247L428.672,460.342z"/>
<path style="fill:#FEFEFE;" d="M495.862,665.905c-0.595-5.315,3.317-15.59,4.563-21.099l7.892,3.339
	c-1.892,5.466-2.672,11.083-3.292,16.814L503.408,668C500.873,668.028,498.233,666.746,495.862,665.905z"/>
<path style="fill:#043A6C;" d="M523.563,669.184c-1.265,3.779-2.282,6.451-5.567,8.762c-8.337,0.886-15.394-1.529-23.45-2.964
	c-0.823,1.98-1.285,3.367-3.11,4.582c-0.989-0.799-1.446-1.237-2.732-1.441c-6.909-1.097-14.132-3.77-20.939-5.651
	c-20.484-5.661-40.61-10.798-59.124-21.641l58.443,13.402l16.798,4.33c3.207,0.932,6.444,2.547,9.775,2.755
	c0.424-1.982,1.295-3.619,2.205-5.413c2.371,0.841,5.011,2.123,7.546,2.095l1.617-3.041L523.563,669.184z"/>
<path style="fill:#F9A766;" d="M508.317,648.145c5.94-2.321,10.229-4.156,16.777-3.431l1.023,1.508l-2.004,3.111
	c3.406,4.238,11.21,6.357,16.362,7.731c7.044,0.346,20.254-0.449,26.227,3.654l0.951,1.504c-0.58,2.284-0.787,3.336-2.902,4.712
	c-1.613,1.049-4.907,0.855-6.79,0.971l-16.706,1.107l-17.692,0.172l-18.538-4.225C505.645,659.228,506.425,653.611,508.317,648.145z
	"/>
<path style="fill:#F55C2D;" d="M370.555,616.931c5.594,18.771,12.659,39.861,2.703,58.33l-1.978,3.577l-1.575,0.804
	c-1.5-1.133-3.535-1.278-5.35-1.601c-3.498-3.017-4.905-7.199-6.55-11.385c1.076-2.777,2.076-5.463,2.134-8.475
	c0.102-5.398-3.038-8.511-6.544-12.085L370.555,616.931z"/>
<path style="fill:#043A6C;" d="M491.339,629.084l12.805,9.631c-2.835,0.271-34.54-15.575-40.243-18.091l-44.175-18.633
	l-16.358-83.107c-2.306-10.614-6.316-21.707-7.332-32.457l42.86,113.068c4.268,3.284,9.485,5.707,14.206,8.308
	c8.103,4.465,16.174,8.97,24.711,12.566l4.269,2.841L491.339,629.084z"/>
<path style="fill:#36AEBC;" d="M488.432,465.229l6.379-0.042c2.45,3.011,4.657,5.782,7.994,7.849l0.047,0.546
	c0.472,3.642,3.159,7.014,5.088,10.057l11.373,17.79l-12.855,4.543c6.252,3.569,13.964,4.363,20.538,7.874l-34.74,111.277
	c-1.399-13.553,0.294-28.629,0.516-42.326c0.092-5.628,0.551-12.175-0.708-17.669c-0.362-1.577-0.48-2.872-0.395-4.485l0.982,0.065
	c1.261-5.406,0.737-12.186,0.865-17.813c0.377-16.477,0.869-32.95-1.587-49.309c0.226-8.119-1.976-17.571-3.009-25.698
	L488.432,465.229z"/>
<path style="fill:#36AEBC;" d="M428.672,460.342c2.027-2.284,3.784-2.056,6.736-2.595c7.574,9.42,19.82,14.709,31.723,16.048
	c3.512,0.395,7.69,0.909,11.13,0.06l0.496-0.01c4.3-0.453,7.349-2.906,10.163-5.957c1.033,8.127,3.235,17.579,3.009,25.698
	c2.456,16.359,1.964,32.832,1.587,49.309c-0.128,5.627,0.396,12.407-0.865,17.813l-0.982-0.065
	c-0.085,1.613,0.033,2.908,0.395,4.485c1.259,5.494,0.8,12.041,0.708,17.669c-0.222,13.697-1.915,28.773-0.516,42.326l-0.917,3.961
	l-9.257-5.874l-4.269-2.841l-54.714-103.246c5.065-4.108,9.918-7.653,15.689-10.712l-19.869-3.993L420.073,472l-1.405-1.579
	l1.646-1.174c2.204-3.399,4.414-6.348,7.246-9.247L428.672,460.342z"/>
<path style="fill:#FEFEFE;" d="M439.486,484.679l0.564,0.229c6.639,2.855,11.279,10.343,17.62,13.754l2.662,2.218l1.72-0.44
	c1.042-2.214,2.363-4.518,3.134-6.83l2.067,1.501l7.365,83.698c-2.603-4.013-3.595-10.325-4.935-14.947l-8.438-27.781
	C455.555,517.884,446.58,502.157,439.486,484.679z"/>
<path style="fill:#DDECF1;" d="M428.672,460.342c2.027-2.284,3.784-2.056,6.736-2.595c7.574,9.42,19.82,14.709,31.723,16.048
	c3.512,0.395,7.69,0.909,11.13,0.06l0.496-0.01c4.3-0.453,7.349-2.906,10.163-5.957c1.033,8.127,3.235,17.579,3.009,25.698
	l-0.617,2.047c-0.805,2.192-1.828,3.309-3.875,4.266l-6.886-7.482c0.521-1.48,1.085-2.241,0.273-3.8
	c-1.233-2.364-5.035-5.031-7.095-6.841c-2.16,0-5.175,3.025-6.732,4.531c-1.777,1.719-3.997,4.182-4.405,6.68l2.594,0.623
	c-0.771,2.312-2.092,4.616-3.134,6.83l-1.72,0.44l-2.662-2.218c-6.341-3.411-10.981-10.899-17.62-13.754l-0.564-0.229
	C434.487,476.871,430.79,469.399,428.672,460.342z"/>
<path style="fill:#03A1C6;" d="M465.186,493.61l-2.594-0.623c0.408-2.498,2.628-4.961,4.405-6.68
	c1.557-1.506,4.572-4.531,6.732-4.531c2.06,1.81,5.862,4.477,7.095,6.841c0.812,1.559,0.248,2.32-0.273,3.8l6.886,7.482
	c2.047-0.957,3.07-2.074,3.875-4.266l0.617-2.047c2.456,16.359,1.964,32.832,1.587,49.309c-0.128,5.627,0.396,12.407-0.865,17.813
	l-0.982-0.065c-0.085,1.613,0.033,2.908,0.395,4.485c1.259,5.494,0.8,12.041,0.708,17.669c-0.222,13.697-1.915,28.773-0.516,42.326
	l-0.917,3.961l-9.257-5.874c-0.326-11.841-3.241-24.241-5.657-35.831c-0.56-2.685-0.529-6.187-1.807-8.57l-7.365-83.698
	L465.186,493.61z"/>
<path style="fill:#FEFEFE;" d="M480.551,492.417l6.886,7.482c2.047-0.957,3.07-2.074,3.875-4.266l0.617-2.047
	c2.456,16.359,1.964,32.832,1.587,49.309c-0.128,5.627,0.396,12.407-0.865,17.813l-0.982-0.065
	c-0.34-13.829-3.505-28.534-6.086-42.122l-3.006-14.077C481.563,500.613,479.463,496.365,480.551,492.417z"/>
<path style="fill:#A4DBE8;" d="M991.579,175.132l45.941-29.318c43.84-30.922,85.04-64.133,136.36-82.216
	c23.79-8.381,49.07-12.943,74.32-9.735c30.89,3.925,58.73,19.009,77.91,43.615c13.11,4.531,19.59,10.643,25.72,22.902
	c5.8-3.843,10.29-5.962,17.43-4.501c4.92,1.006,9.66,4.792,12.18,9.076c1.24,2.099,2.13,4.585,2.87,6.903
	c5.42,0.619,9.42,1.121,13.04,5.605c1.84,2.277,3.39,5.374,3.09,8.37l-0.21,1.278c-4.86,1.456-12.06,0.545-17.18,0.54l-39.64-0.091
	c9.36,13.326,20.55,25.464,32.91,36.047c21.04,18.016,44.83,32.872,64.39,52.676c17.37,17.585,30.68,39.09,36.32,63.273
	c3.72,15.962,5.11,33.509,2.26,49.729c-5.64,32.13-18.39,61.01-34.92,88.983l-18.72,29.461c10.07,13.157,13.93,25.696,11.81,42.374
	c-1.42,11.179-6.09,23.344-13.11,32.194c0.05,3.594,1.9,7.184,3.01,10.592c2,6.089,3.79,12.279,5.2,18.529
	c3.32,15.136,5.38,30.204,7.25,45.578c1.23,10.143,3.14,21.773,0.96,31.893c-0.76,3.554-2.03,6.626-5.12,8.786
	c-6.47,4.508-19.55,4.893-27.27,5.604l-17.86,0.737c3.28,7.609,6.91,14.204,11.9,20.873l-0.67,1.283l-0.57,0.174l-17.36,7.123
	c-28.1,8.262-59.22,7.486-85.51-6.017c-3.26-4.321-6.53-10.79-10.96-13.858c-2.8-1.944-5.87-2.397-9-3.596l-0.92-4.923
	c2.16-15.001,6.59-36.603-0.77-50.408l-1.12,0.466c0.65-4.922-4.79-12.058-6.59-16.956c-2.39-6.483-4.49-13.36-5.59-20.187
	c-1.39-8.62-0.79-18.609,0.19-27.285c0.74-6.589,4.84-19.119,3.08-25.102v-1.058l-0.42-0.953l-124.22,0.24l0.19-24.661l-33.34,0.028
	l3.96-44.208l1.11-2.07l26.72,0.139l-0.19-44.218l-32.11-0.093l-63.1,0.135l0.59-132.416l25.44,0.053l1.23-1.766l0.11-25.641
	l-20.96,0.038c-2.88-6.636-5.28-13.493-8.78-19.843C1030.23,206.353,1011.89,190.924,991.579,175.132z"/>
<path style="fill:#032E5A;" d="M1288.8,446.805c3.84,10.882,10.08,21.832,20.9,27.092c3.06,1.486,6.7,2.397,10.05,3
	c-1.69,7.796-3.88,10.434-9.67,15.596c-4.4,2.226-8.76,4.696-13.56,5.911l-3.89,1.822c-7.04,3.736-12.9,7.808-18.08,13.883
	c-2.84,3.331-5.05,7.115-7.92,10.436l-0.42-0.953c-3.92-11.587-5.61-22.025-4.22-34.244
	C1264.11,470.671,1274.57,458.006,1288.8,446.805z"/>
<path style="fill:#032E5A;" d="M1286.52,434.839c-3.83-14.299-3.94-28.289,3.74-41.427c6.25-10.701,17.27-17.483,29.14-20.313
	c11.54-2.753,26.17-0.082,36.06,6.274c13.92,8.938,19.28,25.82,24.5,40.598c2.29,6.502,4.4,13.141,8.59,18.728
	c8.43,11.238,21.58,13.101,31.49,22.618l5.61,6.412c10.07,13.157,13.93,25.696,11.81,42.374c-1.42,11.179-6.09,23.344-13.11,32.194
	c-3.77-8.314-7.44-16.998-13.11-24.237c-11.7-14.939-24.7-18.991-42.75-21.287l-4.19-1.82c-2.57-0.821-5.3-2.274-7.29-4.089
	c-5.83-5.288-6.22-13.555-6.51-20.846l0.49-9.195c-9.71,10.029-17.13,14.166-31.24,16.074c-3.35-0.603-6.99-1.514-10.05-3
	c-10.82-5.26-17.06-16.21-20.9-27.092C1287.48,442.703,1286.68,439.151,1286.52,434.839z"/>
<path style="fill:#F9A766;" d="M1286.52,434.839c0.86-6.374,1.59-12.587,4.14-18.556c5.32-12.435,17.33-22.362,27.24-31.182
	c4.02,11.342,11.34,22.325,21.35,29.209c3.12,2.142,8.67,5.016,10.71,8.108c2.22,3.369,2.23,8.846,3.39,12.693h0.75l0.48-0.676
	c1.87-2.584,3.79-4.23,7.12-4.58c2.54-0.267,5.1,1.066,6.9,2.775c2.18,2.059,3.05,4.695,2.98,7.618
	c-0.07,3.273-1.94,6.349-4.36,8.488c-1.72,1.52-4.35,2.69-6.66,2.483l-3.11-0.687c-3,2.67-3.8,7.251-6.46,10.291
	c-9.71,10.029-17.13,14.166-31.24,16.074c-3.35-0.603-6.99-1.514-10.05-3c-10.82-5.26-17.06-16.21-20.9-27.092
	C1287.48,442.703,1286.68,439.151,1286.52,434.839z"/>
<path style="fill:#F55C2D;" d="M1319.75,476.897c14.11-1.908,21.53-6.045,31.24-16.074l-0.49,9.195
	c0.29,7.291,0.68,15.558,6.51,20.846c1.99,1.815,4.72,3.268,7.29,4.089l4.19,1.82c18.05,2.296,31.05,6.348,42.75,21.287
	c5.67,7.239,9.34,15.923,13.11,24.237c0.05,3.594,1.9,7.184,3.01,10.592c2,6.089,3.79,12.279,5.2,18.529
	c3.32,15.136,5.38,30.204,7.25,45.578c1.23,10.143,3.14,21.773,0.96,31.893c-0.76,3.554-2.03,6.626-5.12,8.786
	c-6.47,4.508-19.55,4.893-27.27,5.604l-17.86,0.737c3.28,7.609,6.91,14.204,11.9,20.873l-0.67,1.283l-0.57,0.174l-17.36,7.123
	c-28.1,8.262-59.22,7.486-85.51-6.017c-3.26-4.321-6.53-10.79-10.96-13.858c-2.8-1.944-5.87-2.397-9-3.596l-0.92-4.923
	c2.16-15.001,6.59-36.603-0.77-50.408l-1.12,0.466c0.65-4.922-4.79-12.058-6.59-16.956c-2.39-6.483-4.49-13.36-5.59-20.187
	c-1.39-8.62-0.79-18.609,0.19-27.285c0.74-6.589,4.84-19.119,3.08-25.102v-1.058c2.87-3.321,5.08-7.105,7.92-10.436
	c5.18-6.075,11.04-10.147,18.08-13.883l3.89-1.822c4.8-1.215,9.16-3.685,13.56-5.911
	C1315.87,487.331,1318.06,484.693,1319.75,476.897z"/>
<path style="fill:#FEFEFE;" d="M1364.3,494.953l4.19,1.82c-8.31,11.879-18.37,19.87-32.84,22.594
	c-10.76,2.024-22.95,1.263-32.07-5.272c-5.33-3.814-8.25-7.975-10.95-13.869l3.89-1.822c4.3,8.028,9.53,12.962,18.27,15.682
	c5.79,1.803,12.76,2.153,18.74,0.915C1346.21,512.377,1357.01,505.755,1364.3,494.953z"/>
<path style="fill:#F9A766;" d="M1308.05,622.042c6.26,1.133,13.27,2.343,19.01,5.144c3.86,1.88,6.58,5.716,10.27,7.543
	c2.39,1.181,7.22,1.004,9.97,1.19c1.12,6.372,0.89,13.071,1.02,19.531c-12.95,1.81-22.03,2.783-34.14-2.777
	c-3.49-2.251-6.01-4.179-8.43-7.585l0.77-1.25l2.49,0.212c-2.48-2.802-6.9-2.762-8.99-6.272c2.94-0.657,5.5-0.304,8.44,0.074
	c-3.75-2.342-9.48-3.626-13.74-5.374c8.85-1.166,18.6-0.252,27.56-0.347L1308.05,622.042z"/>
<path style="fill:#F9A766;" d="M1319.75,476.897c14.11-1.908,21.53-6.045,31.24-16.074l-0.49,9.195
	c0.29,7.291,0.68,15.558,6.51,20.846c1.99,1.815,4.72,3.268,7.29,4.089c-7.29,10.802-18.09,17.424-30.77,20.048
	c-5.98,1.238-12.95,0.888-18.74-0.915c-8.74-2.72-13.97-7.654-18.27-15.682c4.8-1.215,9.16-3.685,13.56-5.911
	C1315.87,487.331,1318.06,484.693,1319.75,476.897z"/>
<path style="fill:#F55C2D;" d="M1319.75,476.897c14.11-1.908,21.53-6.045,31.24-16.074l-0.49,9.195l-1.26-1.129
	c-10.99,11.189-23.81,19.853-39.16,23.604C1315.87,487.331,1318.06,484.693,1319.75,476.897z"/>
<path style="fill:#D8381D;" d="M1380.09,529.017c8.37,21.289,13.1,45.947,16.98,68.461c1.05,6.066,2.83,12.592,3.01,18.726
	c0.03,0.982,0.37,1.217,0.9,2.018c0,1.054,0.29,2.813-0.3,3.694c-0.85,1.277-2.31,1.963-3.78,2.211
	c-8.23,1.384-16.69,3.863-24.78,5.984c-4.54,1.191-9.68,2.816-14.41,2.653c-3.23-0.111-6.75-1.46-9.83-2.384l-24.35-8.044
	c8.52-2.068,18.32-5.797,25.31-11.174C1371.37,593.839,1376.38,555.532,1380.09,529.017z"/>
<path style="fill:#DDECF1;" d="M991.579,175.132l45.941-29.318c43.84-30.922,85.04-64.133,136.36-82.216
	c23.79-8.381,49.07-12.943,74.32-9.735c30.89,3.925,58.73,19.009,77.91,43.615c13.11,4.531,19.59,10.643,25.72,22.902
	c5.8-3.843,10.29-5.962,17.43-4.501c4.92,1.006,9.66,4.792,12.18,9.076c1.24,2.099,2.13,4.585,2.87,6.903
	c5.42,0.619,9.42,1.121,13.04,5.605c1.84,2.277,3.39,5.374,3.09,8.37l-0.21,1.278c-4.86,1.456-12.06,0.545-17.18,0.54l-39.64-0.091
	c9.36,13.326,20.55,25.464,32.91,36.047c21.04,18.016,44.83,32.872,64.39,52.676c17.37,17.585,30.68,39.09,36.32,63.273
	c3.72,15.962,5.11,33.509,2.26,49.729c-5.64,32.13-18.39,61.01-34.92,88.983l-18.72,29.461l-5.61-6.412l0.31-83.939l-16.24,0.128
	l-0.01-63.79l-101.47,0.227c0.03-7.146,1.65-45.368-0.83-48.61l-4.78-0.009c-0.39,0.448-0.93,0.796-1.15,1.343
	c-0.68,1.678,0.04,7.524,0.05,9.546l0.24,37.728l-66.22-0.124l0.1,26.594l-18.01-0.019l-0.09-31.584
	c0-4.493-0.74-10.514,0.65-14.758c1.9-0.129,3.25-0.227,4.93-1.161c0.18-2.836,1.02-7.366-0.4-9.836l-9.66-0.14v-17.58
	c-1.98-2.522-4.62-0.579-7.31-2.332c-0.03-1.517-0.6-5.298-0.14-6.557c0.83-2.268,1.92-2.377,2.37-5.333
	c-1.66-3.52-1.91-0.947-4.24-2.577c-1.05-0.73-1.87-3.494-2.88-4.026c-0.76-0.406-5.51-0.116-5.77-0.448
	c-0.86-1.061,0.31-3.622-1.66-4.504c-2.21-0.996-3.47,0.779-5.84-1.334l-0.26-29.778l3.01-1.777c-0.11-3.157-0.09-3.089-2.36-5.282
	c1.16-9.325-0.47-15.2-9.17-19.778c-0.31-0.16-2.91-1.345-2.99-1.504c-0.39-0.75-0.08-4.68-0.09-5.679l0.23-22.399
	c0.04-2.816,0.63-6.355-0.94-8.771l-1.71-0.22c-2.68,3.426-1.11,24.146-1.13,29.747c-0.01,1.645,0.36,5.226-0.36,6.68
	c-0.44,0.895-6.99,4.176-8.54,5.969c-3.37,3.884-4.76,7.463-4.47,12.546c0.03,0.444,0.37,2.596,0.22,2.913
	c-1.3,2.917-2.76,1.748-2.45,5.778c1.24,0.413,1.96,0.807,2.96,1.655l0.12,28.936c-1.52,1.406-3.49,1.52-5.45,1.873l-2.22,3.471
	c-1.83,0.158-2.94,0.54-4.55,1.398c-0.55,1.503-0.96,2.417-2.12,3.532l-4.44-0.563c-3.52,2.558,0.57,11.079-0.89,15.74l-5.78,0.542
	c-2.16,2.554-1.04,15.26-1.04,19.253l-12.51-0.027l-0.49,9.523c2.24,2.576,4.42,0.209,6.97,2.667l-0.06,72.218l-13.26-0.044
	l0.11,41.908l-63.1,0.135l0.59-132.416l25.44,0.053l1.23-1.766l0.11-25.641l-20.96,0.038c-2.88-6.636-5.28-13.493-8.78-19.843
	C1030.23,206.353,1011.89,190.924,991.579,175.132z"/>
<path style="fill:#36AEBC;" d="M1343.41,147.56l-71.11-0.046c-2.81-0.001-14.14,1.027-16.16-0.01c-0.56-0.287-0.92-0.855-1.38-1.282
	c-0.12-2.766-0.25-5.59,0.39-8.305c1.2-5.101,4.84-9.777,9.29-12.485c6.51-3.955,12.56-3.441,19.71-1.794
	c3.17-7.645,6.05-13.775,12.69-19.184c9-7.332,18.16-8.063,29.27-6.976c13.11,4.531,19.59,10.643,25.72,22.902
	c5.8-3.843,10.29-5.962,17.43-4.501c4.92,1.006,9.66,4.792,12.18,9.076c1.24,2.099,2.13,4.585,2.87,6.903
	c5.42,0.619,9.42,1.121,13.04,5.605c1.84,2.277,3.39,5.374,3.09,8.37l-0.21,1.278c-4.86,1.456-12.06,0.545-17.18,0.54
	L1343.41,147.56z"/>
<path style="fill:#FEFEFE;" d="M683.413,452.637l30.254-0.083l0.002,46.12l37.293,0.045l70.579-0.037l182.019,0.172l70.86,0.344
	l34.42,0.001l33.34-0.028l-0.19,24.661l124.22-0.24l0.42,0.953v1.058c1.76,5.983-2.34,18.513-3.08,25.102
	c-0.98,8.676-1.58,18.665-0.19,27.285c1.1,6.827,3.2,13.704,5.59,20.187c1.8,4.898,7.24,12.034,6.59,16.956l1.12-0.466
	c7.36,13.805,2.93,35.407,0.77,50.408l0.92,4.923c3.13,1.199,6.2,1.652,9,3.596c4.43,3.068,7.7,9.537,10.96,13.858
	c0.11,5.279,1.26,10.703,0.89,15.926c-0.88,12.299-11.03,28.457-17.98,38.728c-5.58,6.372-10.93,12.142-17.81,17.152l-3.84,16.038
	l-0.67,3.507c-18.76-3.176-36.92-2.782-55.8-1.014l-0.88-0.287c-5.82,2.081-9.13,7.473-11.63,12.879l-1.06,2.733
	c-25.54,4.075-52.03,14.156-67.64,35.865c-12.16,16.923-34.34,63.637-31.21,83.954c0.87,5.697,3.93,11.337,6.97,16.176l-1.5,1.532
	l-76.29,0.101l0.07,35.596l-194.827-0.02l0.114-45.888l0.069-2.089l-2.136-1.271c-13.247-2.945-24.665-6.914-35.596-15.2
	c-2.662-2.149-5.142-4.971-6.834-7.939c-13.411-23.527,6.434-72.194,13.424-96.527l-42.952-0.201l-68.621,0.049l-0.22-262.126
	c-1.518-10.028-1.173-23.554-0.723-33.793c0.205-4.667,2.153-12.713-0.171-16.817c2.6-3.566,1.967-5.869,1.933-10.182
	L683.413,452.637z"/>
<path style="fill:#FEFEFE;" d="M1141.99,523.832l124.22-0.24l0.42,0.953v1.058c1.76,5.983-2.34,18.513-3.08,25.102
	c-0.98,8.676-1.58,18.665-0.19,27.285c1.1,6.827,3.2,13.704,5.59,20.187c1.8,4.898,7.24,12.034,6.59,16.956
	c-0.13,8.291-3.49,24.147-9.63,30.01c-1.98,1.885-4.77,2.83-7.48,2.798c-2.93-0.034-5.89-1.758-8.14-3.535
	c-8.1-6.415-15.25-15.392-22.35-22.979l-41.74-44.885c-1.31-1.433-4.24-5.565-5.77-6.318c-2.49-1.224-11.15-0.834-14.32-1.124
	l-23.93-3.278c-9.07-0.918-17.8-2.344-26.6-4.778l6.07-3.435c5.51-3.028,14.04-2.278,20.29-2.412L1141.99,523.832z"/>
<path style="fill:#F9A766;" d="M1141.94,555.197l24.07-0.753c-3.56-3.003-12.03-7.362-14.24-10.888c3.04-1.497,5.9-0.972,9.16,0.056
	c11.48,3.619,21.87,13.392,32.48,19.205c-2.46,4.455-4.24,9.612-7.21,13.725c-1.31-1.433-4.24-5.565-5.77-6.318
	c-2.49-1.224-11.15-0.834-14.32-1.124l-23.93-3.278c-9.07-0.918-17.8-2.344-26.6-4.778l6.07-3.435
	C1127.16,554.581,1135.69,555.331,1141.94,555.197z"/>
<path style="fill:#D8381D;" d="M1266.63,525.603c1.76,5.983-2.34,18.513-3.08,25.102c-0.98,8.676-1.58,18.665-0.19,27.285
	c1.1,6.827,3.2,13.704,5.59,20.187c1.8,4.898,7.24,12.034,6.59,16.956c-0.13,8.291-3.49,24.147-9.63,30.01
	c-1.98,1.885-4.77,2.83-7.48,2.798c-2.93-0.034-5.89-1.758-8.14-3.535c-8.1-6.415-15.25-15.392-22.35-22.979l-41.74-44.885
	c2.97-4.113,4.75-9.27,7.21-13.725l53.12,27.508C1249.65,567.707,1255.77,545.784,1266.63,525.603z"/>
<path style="fill:#2B3038;" d="M1189.02,681.664c-3.39-0.253-6.99-0.367-10.17-1.687c-4.32-1.795-6.73-4.463-8.36-8.823
	c-1.5-4-0.67-8.401,1.19-12.148c1.98-3.982,5.66-7.324,9.91-8.699c10.24-3.306,17.25,7.244,25.53,11.475
	c0.65-0.254,1.07-0.5,1.57-0.99l4.68-4.348c9.09-6.847,27.88-6.773,38.64-5.301c10.73,1.471,18.76,5.266,25.42,13.932l0.92,4.923
	c3.13,1.199,6.2,1.652,9,3.596c4.43,3.068,7.7,9.537,10.96,13.858c0.11,5.279,1.26,10.703,0.89,15.926
	c-0.88,12.299-11.03,28.457-17.98,38.728c-5.58,6.372-10.93,12.142-17.81,17.152l-3.84,16.038l-0.67,3.507
	c-18.76-3.176-36.92-2.782-55.8-1.014l-0.88-0.287c0.02-1.878,0.67-6.989,0.06-8.503c-0.87-2.171-6.24-5.102-8.05-6.92
	c-4.49-4.525-7.59-10.476-9.44-16.524c-4.29-14.089-3.34-29.996-1.12-44.388C1184.7,694.516,1185.86,687.668,1189.02,681.664z"/>
<path style="fill:#F9BB80;" d="M1189.02,681.664l8.48-1.929l7.47,40.243l0.4-0.593c1.63-2.414,3.86-5.854,6.81-6.566
	c1.35-0.325,3.76,0.056,4.9,0.875c2.58,1.851,3.99,4.248,4.55,7.362c0.67,3.736-0.45,7.025-2.67,10.03
	c-2.12,2.889-5.36,4.94-8.4,6.744c0.19,5.147,4.44,8.856,8.04,12.215c8.07,7.528,18.6,14.032,30.07,13.411
	c5.37-0.29,9.97-1.796,14.74-4.198l-3.84,16.038l-0.67,3.507c-18.76-3.176-36.92-2.782-55.8-1.014l-0.88-0.287
	c0.02-1.878,0.67-6.989,0.06-8.503c-0.87-2.171-6.24-5.102-8.05-6.92c-4.49-4.525-7.59-10.476-9.44-16.524
	c-4.29-14.089-3.34-29.996-1.12-44.388C1184.7,694.516,1185.86,687.668,1189.02,681.664z"/>
<path style="fill:#F55C2D;" d="M1203.1,777.789c-0.17-2.805-0.63-5.753,0.26-8.456l29.88-0.579c4.63-0.011,10.39-0.6,14.85,0.61
	c4.35,1.182,7.75,3.443,11.48,5.932l-0.67,3.507C1240.14,775.627,1221.98,776.021,1203.1,777.789z"/>
<path style="fill:#92B8E2;" d="M1074.42,499.198l34.42,0.001l33.34-0.028l-0.19,24.661l-0.05,31.365
	c-6.25,0.134-14.78-0.616-20.29,2.412l-6.07,3.435c8.8,2.434,17.53,3.86,26.6,4.778l-0.22,230.912l-92.23,0.589l-0.23-0.859
	l24.97-0.032L1074.42,499.198z"/>
<path style="fill:#4887C3;" d="M1003.56,498.854l70.86,0.344l0.05,297.234l-24.97,0.032l-1.76-4.464
	c-8.44-18.34-26.04-24.935-43.6-31.563c-6.822-2.805-14.4-4.201-21.6-5.693c-0.654-5.919-1.813-10.932-5.86-15.497
	c-5.299-5.979-11.17-6.015-18.584-6.539c-1.619-4.765-2.153-8.465-1.864-13.508c7.446-5.311,16.203-13.738,19.944-22.218
	c1.04-2.358,1.592-6.908,2.931-8.749c1.613-2.217,7.092-3.562,9.541-5.129c6.158-3.941,11.307-11.67,12.752-18.852
	c1.22-6.092-1.34-13.111-4.693-18.113l-0.541-0.799c2.483-5.076,5.484-8.922,7.194-14.486l0.04-5.481L1003.56,498.854z"/>
<path style="fill:#F9BB80;" d="M1003.36,630.854l0.78,129.583c-6.822-2.805-14.4-4.201-21.6-5.693
	c-0.654-5.919-1.813-10.932-5.86-15.497c-5.299-5.979-11.17-6.015-18.584-6.539c-1.619-4.765-2.153-8.465-1.864-13.508
	c7.446-5.311,16.203-13.738,19.944-22.218c1.04-2.358,1.592-6.908,2.931-8.749c1.613-2.217,7.092-3.562,9.541-5.129
	c6.158-3.941,11.307-11.67,12.752-18.852c1.22-6.092-1.34-13.111-4.693-18.113l-0.541-0.799
	C998.649,640.264,1001.65,636.418,1003.36,630.854z"/>
<path style="fill:#F9A766;" d="M889.732,719.122c7.674-0.421,63.281-1.448,66.5,0.078c-0.289,5.043,0.245,8.743,1.864,13.508
	c7.414,0.524,13.285,0.56,18.584,6.539c4.047,4.565,5.206,9.578,5.86,15.497c7.2,1.492,14.778,2.888,21.6,5.693
	c17.56,6.628,35.16,13.223,43.6,31.563l1.76,4.464l0.23,0.859c3.47,17.885,8.86,35.486,13.48,53.121
	c2.31,8.829,5.91,18.096,5.7,27.334c-0.14,6.16-2.3,12.294-5.69,17.405c-1.36,2.046-3.09,3.84-4.8,5.584
	c-12.17,8.672-24.65,11.314-38.91,14.498l0.35,15.477l0.07,35.596l-194.827-0.02l0.114-45.888l0.069-2.089l-2.136-1.271
	c-13.247-2.945-24.665-6.914-35.596-15.2c-2.662-2.149-5.142-4.971-6.834-7.939c-13.411-23.527,6.434-72.194,13.424-96.527
	c6.793-16.688,12.183-27.164,27.331-37.789c10.563-5.756,29.032-8.473,40.83-6.199c0.199-4.215,0.06-8.959,2.486-12.583l0.331-0.483
	c0.725-1.076,1.452-2.117,2.364-3.048c5.92-6.045,12.213-4.659,19.967-4.757C889.643,728.035,889.651,724.01,889.732,719.122z"/>
<path style="fill:#F69361;" d="M1019.51,915.265l-0.12-67.499l39.03,53.001C1046.25,909.439,1033.77,912.081,1019.51,915.265z"/>
<path style="fill:#F69361;" d="M787.554,901.87c3.346-8.098,8.846-14.971,13.931-22.027l24.933-33.692L825.692,916l-0.588,0.225
	l-1.954,0.845C809.903,914.125,798.485,910.156,787.554,901.87z"/>
<path style="fill:#FEFEFE;" d="M889.732,719.122c7.674-0.421,63.281-1.448,66.5,0.078c-0.289,5.043,0.245,8.743,1.864,13.508
	c7.414,0.524,13.285,0.56,18.584,6.539c4.047,4.565,5.206,9.578,5.86,15.497c-28.485-1.961-57.563-0.967-86.114-0.948
	c-11.172,0.007-23.027,0.846-34.121-0.38c0.199-4.215,0.06-8.959,2.486-12.583l0.331-0.483c0.725-1.076,1.452-2.117,2.364-3.048
	c5.92-6.045,12.213-4.659,19.967-4.757C889.643,728.035,889.651,724.01,889.732,719.122z"/>
<path style="fill:#032E5A;" d="M889.732,719.122c7.674-0.421,63.281-1.448,66.5,0.078c-0.289,5.043,0.245,8.743,1.864,13.508
	l-70.643-0.163C889.643,728.035,889.651,724.01,889.732,719.122z"/>
<path style="fill:#92B8E2;" d="M683.413,452.637l30.254-0.083l0.002,46.12l37.293,0.045l70.579-0.037l182.019,0.172l-0.16,126.519
	l-0.04,5.481c-1.71,5.564-4.711,9.41-7.194,14.486l0.541,0.799c3.353,5.002,5.913,12.021,4.693,18.113
	c-1.445,7.182-6.594,14.911-12.752,18.852c-2.449,1.567-7.928,2.912-9.541,5.129c-1.339,1.841-1.891,6.391-2.931,8.749
	c-3.741,8.48-12.498,16.907-19.944,22.218c-3.219-1.526-58.826-0.499-66.5-0.078c-0.081,4.888-0.089,8.913-2.279,13.423
	c-7.754,0.098-14.047-1.288-19.967,4.757c-0.912,0.931-1.639,1.972-2.364,3.048l-0.331,0.483c-2.426,3.624-2.287,8.368-2.486,12.583
	c-11.798-2.274-30.267,0.443-40.83,6.199c-15.148,10.625-20.538,21.101-27.331,37.789l-42.952-0.201l-68.621,0.049l-0.22-262.126
	c-1.518-10.028-1.173-23.554-0.723-33.793c0.205-4.667,2.153-12.713-0.171-16.817c2.6-3.566,1.967-5.869,1.933-10.182
	L683.413,452.637z"/>
<path style="fill:#DDECF1;" d="M683.413,452.637l30.254-0.083l0.002,46.12l-31.217-0.127c0.042,11.887,1.1,24.814-0.101,36.579
	c-1.518-10.028-1.173-23.554-0.723-33.793c0.205-4.667,2.153-12.713-0.171-16.817c2.6-3.566,1.967-5.869,1.933-10.182
	L683.413,452.637z"/>
<path style="fill:#4887C3;" d="M750.962,498.719l70.579-0.037l-0.066,260.933c-15.148,10.625-20.538,21.101-27.331,37.789
	l-42.952-0.201L750.962,498.719z"/>
<path style="fill:#F9BB80;" d="M821.541,498.682l182.019,0.172l-0.16,126.519l-0.04,5.481c-1.71,5.564-4.711,9.41-7.194,14.486
	l0.541,0.799c3.353,5.002,5.913,12.021,4.693,18.113c-1.445,7.182-6.594,14.911-12.752,18.852c-2.449,1.567-7.928,2.912-9.541,5.129
	c-1.339,1.841-1.891,6.391-2.931,8.749c-3.741,8.48-12.498,16.907-19.944,22.218c-3.219-1.526-58.826-0.499-66.5-0.078
	c-0.081,4.888-0.089,8.913-2.279,13.423c-7.754,0.098-14.047-1.288-19.967,4.757c-0.912,0.931-1.639,1.972-2.364,3.048l-0.331,0.483
	c-2.426,3.624-2.287,8.368-2.486,12.583c-11.798-2.274-30.267,0.443-40.83,6.199L821.541,498.682z"/>
<path style="fill:#F55C2D;" d="M889.732,719.122c-7.409-6.673-15.326-13.738-19.449-23.041c-0.808-1.825-1.607-7.049-2.526-8.193
	c-0.571-0.711-5.244-1.966-6.323-2.369c-2.477-0.926-4.578-2.29-6.641-3.934c-4.706-3.751-9.196-9.985-9.744-16.142
	c-0.64-7.182,0.882-13.509,5.626-18.994l0.587-0.671c-0.233-0.734-0.483-1.341-0.987-1.935c-2.12-2.497-3.935-4.503-5.203-7.574
	l-0.226-0.558l-0.463-1.126c-2.127-5.522-1.207-12.119,1.105-17.426c2.892-6.637,8.169-11.487,14.797-14.224
	c4.457-1.84,1.818-6.157,3.572-10.224c4.838-11.218,16.951-18.806,29.258-17.497c0.86,0.091,6.653,1.632,6.899,1.519
	c0.778-0.36,2.732-2.99,3.44-3.72c2.83-2.923,5.438-5.323,9.252-6.868l0.604-0.24c4.63-1.896,10.958-2.062,15.887-1.237
	c7.591,1.272,11.972,6.161,16.35,12.022c2.308-0.292,4.533-1.238,6.867-1.264c7.705-0.082,16.271,3.164,21.822,8.509
	c3.129,3.013,6.429,8.05,6.735,12.509c0.155,2.255-0.521,4.528-0.454,6.837c2.878,0.644,5.817,1.324,8.473,2.643
	c7.813,3.882,11.85,11.519,14.41,19.449l-0.04,5.481c-1.71,5.564-4.711,9.41-7.194,14.486l0.541,0.799
	c3.353,5.002,5.913,12.021,4.693,18.113c-1.445,7.182-6.594,14.911-12.752,18.852c-2.449,1.567-7.928,2.912-9.541,5.129
	c-1.339,1.841-1.891,6.391-2.931,8.749c-3.741,8.48-12.498,16.907-19.944,22.218C953.013,717.674,897.406,718.701,889.732,719.122z"
	/>
</svg>
