<?xml version="1.0" encoding="iso-8859-1"?>
<!-- Generator: Adobe Illustrator 29.3.1, SVG Export Plug-In . SVG Version: 9.03 Build 55982)  -->
<svg version="1.1" id="Layer" xmlns="http://www.w3.org/2000/svg" xmlns:xlink="http://www.w3.org/1999/xlink" x="0px" y="0px"
	 viewBox="0 0 3000 2000" style="enable-background:new 0 0 3000 2000;" xml:space="preserve">
<g>
	<defs>
		<rect id="SVGID_1_" x="0.01" y="0" width="3000" height="2000"/>
	</defs>
	<clipPath id="SVGID_00000052092234303145925880000015736954419277350569_">
		<use xlink:href="#SVGID_1_"  style="overflow:visible;"/>
	</clipPath>
	
		<rect x="0.01" y="0" style="clip-path:url(#SVGID_00000052092234303145925880000015736954419277350569_);fill:#E0E0E0;" width="3000" height="2000"/>
	<polygon style="clip-path:url(#SVGID_00000052092234303145925880000015736954419277350569_);fill:#B4D682;" points="
		750.388,699.041 1014.816,745.749 1001.265,788.726 748.422,734.291 	"/>
	<path style="clip-path:url(#SVGID_00000052092234303145925880000015736954419277350569_);fill:#B4D682;" d="M1119.946,644.651
		c0,0,22.819-36.442,33.377-38.145c10.558-1.703,164.13,106.061,200.421,136.988c36.292,30.927,130.192,100.309,132.122,119.986
		c1.929,19.678-37.04,54.789-37.04,54.789L1119.946,644.651z"/>
	<path style="clip-path:url(#SVGID_00000052092234303145925880000015736954419277350569_);fill:#B4D682;" d="M828.775,57.546
		c0,0,90.196,87.685,155.103,98.812c64.908,11.127,241.085,3.709,241.085,3.709s-19.781,44.508-81.598,65.526
		s-120.193,10.509-139.706,11.127c-19.513,0.618-60.58,33.999-77.889,42.654c-17.309,8.654-96.952,23.38-176.696,15.344
		c0,0-43.517-70.872-37.212-112.582C718.168,140.425,757.02,88.159,828.775,57.546z"/>
	<path style="clip-path:url(#SVGID_00000052092234303145925880000015736954419277350569_);fill:#B4D682;" d="M2686.476,182.106
		c0,0,63.415,45.443,95.117,49.101c31.702,3.658,128.637,15.851,137.173,103.642c4.877,40.847-0.61,68.891-68.281,77.426
		c-20.729,4.877-71.592,39.032-71.592,39.032l-101.584-52.784c0,0-45.556-18.486-57.88-20.467
		c-12.324-1.981-26.849-8.583-26.849-8.583s2.745-33.574,11.846-56.579C2613.526,289.89,2660.219,201.76,2686.476,182.106z"/>
	<path style="clip-path:url(#SVGID_00000052092234303145925880000015736954419277350569_);fill:#B4D682;" d="M1302.04,416.234
		c2.673-31.04,20.763-101.402,80.682-154.884c59.919-53.481,133.703-66.851,133.703-66.851s-4.101,120.893,24.938,161.466
		c29.039,40.573,45.938,46.937,45.938,46.937c26.583,12.418,59.354,34.79,94.908,88.799
		c35.554,54.009,57.874,101.529,57.874,101.529l-86.495,36c0,0-77.81-90.199-145.101-129.322
		C1441.195,460.787,1302.04,416.234,1302.04,416.234z"/>
	<path style="clip-path:url(#SVGID_00000052092234303145925880000015736954419277350569_);fill:#B4D682;" d="M1275.682,1619.359
		l125.73-9.322l48.528-18.17c0,0,51.658,50.382,84.183,59.63c32.525,9.247,76.849,12.755,91.199,2.551
		c10.523,22.959,143.145,304.249,143.145,304.249l-276.703-14.281l-110.401-14.95L1275.682,1619.359z"/>
	<path style="clip-path:url(#SVGID_00000052092234303145925880000015736954419277350569_);fill:#B4D682;" d="M543.306,1654.473
		c5.443-12.094,60.75-14.611,67.671-6.408c6.921,8.203,9.022,208.373,9.022,208.373L623.5,2000h-63.509l-11.672-162.245
		C548.32,1837.755,535.024,1672.875,543.306,1654.473z"/>
	<path style="clip-path:url(#SVGID_00000052092234303145925880000015736954419277350569_);fill:#B4D682;" d="M419.362,1314.129
		l122.358,35.461c0,0,10.227-31.431-9.809-120.418c-7.305-16.763-100.682-33.805-126.6-16.408L419.362,1314.129z"/>
	<path style="clip-path:url(#SVGID_00000052092234303145925880000015736954419277350569_);fill:#B4D682;" d="M2185.815,366.653
		c0,0,184.642,165.502,201.53,172.257c14.636-39.405,39.092-111.623,34.745-149.821c-4.347-38.198-66.086-96.514-141.048-118.02
		C2254.567,298.047,2185.815,366.653,2185.815,366.653z"/>
	<path style="clip-path:url(#SVGID_00000052092234303145925880000015736954419277350569_);fill:#B4D682;" d="M341.501,909.854
		l38.468,6.023c10.784-22.112,24.022-46.324,40.284-71.678c16.147-25.175,32.512-47.168,48.008-66.093
		c9.795-30.62,2.956-57.131,10.649-72.816c11.553-23.555-5.608-56.308-5.608-56.308l-93.333-35.427c0,0-36.157-12.175-66.622-6.994
		c-0.98,36.834,0,186.444,0,186.444s18.986,17.487,23.456,47.7C341.272,870.919,341.501,909.854,341.501,909.854z"/>
	<polygon style="clip-path:url(#SVGID_00000052092234303145925880000015736954419277350569_);fill:#B4D682;" points="
		1323.859,1378.362 1497.182,1346.851 1353.166,1080.443 1175.104,1141.634 1226.192,1189.371 	"/>
	<path style="clip-path:url(#SVGID_00000052092234303145925880000015736954419277350569_);fill:#B4D682;" d="M2515.708,2099.494
		c0,0-60.296-298.308-98.378-441.115c-38.082-142.807-133.286-383.992-218.97-418.9c-85.684-34.908-323.696-145.98-323.696-145.98
		L1735.03,953.866l238.011-28.561h152.327L2401.462,1000c0,0,352.257,116.369,415.727,160.142
		c63.47,43.774,66.643,98.378,66.643,98.378l196.756,104.725l28.562,736.249H2515.708z"/>
	<path style="clip-path:url(#SVGID_00000052092234303145925880000015736954419277350569_);fill:#91C2ED;" d="M3051.024,1386.371
		v-78.56c0,0-129.94-31.12-157.15-69.12c-12.27-17.14-13.56-89.59-103.76-129.32c-115.49-50.86-293.58-113.34-394.4-145.08
		c-183.66-57.82-329.46-63.92-434.9-60.52c-68.4,2.21-147.01,6.07-193.8,8.5c-61.19-53.39-118.89-106.37-144.78-140.89
		c-54.42-72.56-190.46-213.14-358.26-290.23c-167.79-77.1-535.11-154.19-657.55-154.19c-122.45,0-684.6,0-684.6,0v86.48
		c0,0,1045.74,0,1294.73,164.33c248.99,164.34,283.46,204.17,283.46,204.17s358.93,428.26,578.03,473.08
		c219.11,44.82,378.46,796.76,378.46,796.76h108.99c-14.846-120.896-39.625-222.241-63.49-300.86
		c-74.293-244.739-145.481-479.25-330.292-570.113c-57.594-28.316-126.442-42.789-227.498-114.657
		c-55.73-39.634-96.626-79.206-122.88-107c85.15-10.36,282.81-29.02,386.09,5.42c133.98,44.66,513.9,163.83,576.27,196.77
		c59.58,31.46,58.53,90.31,79.21,108.32C2908.164,1309.091,3051.024,1341.711,3051.024,1386.371z"/>
	<g style="clip-path:url(#SVGID_00000052092234303145925880000015736954419277350569_);">
		<path style="fill:#FFFFFF;" d="M2031.541,997.713l-2.021,4.574c0.787,0.348,79.742,35.397,166.964,87.532
			c80.327,48.015,184.29,120.737,223.397,194.513c42.706,80.564,135.921,262.936,217.685,435.162
			c104.877,220.911,160.312,360.498,160.312,403.671h5c0-104.406-303.464-699.475-378.578-841.175
			c-17.545-33.098-49.158-68.652-93.962-105.677c-35.736-29.532-79.924-60.086-131.335-90.813
			C2111.522,1033.214,2032.33,998.062,2031.541,997.713z"/>
	</g>
	<g style="clip-path:url(#SVGID_00000052092234303145925880000015736954419277350569_);">
		<path style="fill:#FFFFFF;" d="M2154.225,1023.571l-38.389,16.486l1.973,4.594l36.793-15.8
			c9.029,2.475,88.645,24.799,115.763,49.205c3.764,3.387,7.196,6.686,10.515,9.875c22.389,21.516,40.072,38.51,120.38,43.692
			c27.445,1.771,48.679,4.585,68.851,9.127c63.874,14.381,150.058,42.588,200.383,78.626
			c74.533,53.374,137.644,153.474,150.062,238.016c6.132,41.744-0.654,76.792-19.625,101.353c-0.807,1.045-2.042,2.925-3.75,5.527
			c-50.695,77.19-110.153,114.53-176.664,110.954l-0.268,4.993c43.852,2.354,85.287-12.863,123.181-45.214
			c30.228-25.807,49.641-55.366,57.93-67.989c1.586-2.415,2.839-4.322,3.528-5.215c19.82-25.662,26.948-62.018,20.614-105.137
			c-12.598-85.76-76.563-187.264-152.098-241.354c-50.933-36.474-137.844-64.951-202.196-79.439
			c-20.437-4.602-41.91-7.45-69.626-9.239c-78.483-5.064-94.738-20.685-117.237-42.307c-3.348-3.217-6.811-6.544-10.634-9.986
			c-29.514-26.56-115.024-49.579-118.649-50.546L2154.225,1023.571z"/>
	</g>
	<g style="clip-path:url(#SVGID_00000052092234303145925880000015736954419277350569_);">
		<path style="fill:#FFFFFF;" d="M2696.677,1230.556c-0.535,1.575-13.048,38.85-9.003,61.096c0.393,2.156,0.881,4.66,1.426,7.453
			c4.721,24.193,14.543,74.536-1.175,104.226c-14,26.445-148.271,13.429-198.826,6.182l-0.709,4.949
			c0.46,0.066,46.542,6.62,94.219,8.95c64.912,3.171,101.823-2.797,109.734-17.742c16.546-31.253,6.865-80.869,1.664-107.524
			c-0.54-2.77-1.024-5.251-1.413-7.39c-3.813-20.97,8.691-58.222,8.817-58.596L2696.677,1230.556z"/>
	</g>
	<g style="clip-path:url(#SVGID_00000052092234303145925880000015736954419277350569_);">
		<path style="fill:#FFFFFF;" d="M2723.217,1222.527c-10.09,0-20.443,0.857-31.036,2.571l0.799,4.936
			c30.557-4.946,59.043-2.561,84.673,7.092c90.312,34.014,118.806,149.208,135.83,218.035
			c20.373,82.367,41.44,167.537-2.978,258.316c-52.401,107.097-156.855,146.785-199.333,158.877l1.369,4.809
			c21.192-6.033,53.81-17.744,88.843-39.275c51.064-31.383,89.29-72.502,113.613-122.213
			c45.216-92.413,23.927-178.479,3.339-261.712c-17.26-69.783-46.148-186.576-138.922-221.516
			C2761.875,1225.84,2743.061,1222.528,2723.217,1222.527z"/>
	</g>
	<g style="clip-path:url(#SVGID_00000052092234303145925880000015736954419277350569_);">
		<polygon style="fill:#FFFFFF;" points="128.296,-79.082 108.296,-79.082 108.296,141.127 108.333,141.557 156.703,700 
			156.731,700.211 244.632,1377.048 323.744,2052.944 343.609,2050.619 264.474,1374.545 176.592,697.846 128.296,140.262 		"/>
	</g>
	<g style="clip-path:url(#SVGID_00000052092234303145925880000015736954419277350569_);">
		<path style="fill:#FFFFFF;" d="M1884.54,1726.791c-0.027,0-0.055,0.001-0.082,0.002c-8.56,0.282-857.47,28.454-990.896,45.67
			c-31.547,4.071-56.937,21.489-75.463,51.772c-14.666,23.972-25.059,56.03-30.891,95.285c-9.892,66.58-3.145,131.875-3.076,132.526
			l4.972-0.528c-0.068-0.646-6.751-65.388,3.062-131.347c8.967-60.273,33.949-133.964,102.036-142.75
			c132.306-17.071,970.604-44.975,990.14-45.623c9.367,1.818,152.604,29.511,182.599,29.511c30.558,0,107.734-28.463,111.005-29.675
			l-1.736-4.688c-0.793,0.293-79.604,29.363-109.269,29.363c-29.875,0-180.405-29.179-181.923-29.473
			C1884.859,1726.806,1884.7,1726.791,1884.54,1726.791z"/>
	</g>
	<g style="clip-path:url(#SVGID_00000052092234303145925880000015736954419277350569_);">
		<polygon style="fill:#FFFFFF;" points="203.859,980.461 -99.95,980.461 -99.95,985.461 203.211,985.461 628.825,1097.679 
			952.762,1261.068 953.901,1260.47 1176.097,1143.936 1351.975,1083.496 1497.752,1353.162 1659.01,1738.156 1659.04,1738.217 
			1811.645,2052.872 1816.144,2050.69 1663.569,1736.097 1502.267,1351.002 1502.209,1350.893 1354.358,1077.39 1173.943,1139.421 
			952.718,1255.445 630.607,1092.978 630.353,1092.912 		"/>
	</g>
	<g style="clip-path:url(#SVGID_00000052092234303145925880000015736954419277350569_);">
		<path style="fill:#FFFFFF;" d="M2124.799,1834.492l-132.664,53.684l-223.719,67.94l-277.445-15.131l-402.666-52.929l-0.652,4.957
			l402.855,52.954l0.096,0.005l278.422,15.185l0.422-0.128l224.356-68.134l0.104-0.042l131.447-53.192
			c17.15,3.057,30.156,10.803,38.667,23.03c16.841,24.193,10.663,58.259,10.599,58.601l4.912,0.931
			c0.28-1.475,6.647-36.419-11.388-62.361c-9.421-13.55-23.769-22.045-42.647-25.251L2124.799,1834.492z"/>
	</g>
	<g style="clip-path:url(#SVGID_00000052092234303145925880000015736954419277350569_);">
		<polygon style="fill:#FFFFFF;" points="950.416,1257.335 885.497,1421.263 885.497,2000 890.497,2000 890.497,1422.217 
			955.064,1259.177 		"/>
	</g>
	<g style="clip-path:url(#SVGID_00000052092234303145925880000015736954419277350569_);">
		<polygon style="fill:#FFFFFF;" points="1635.996,1357.757 887.561,1606.056 654.372,1581.014 275.3,1545.91 -99.605,1513.387 
			-100.296,1521.356 274.585,1553.877 653.576,1588.974 888.432,1614.196 1638.515,1365.35 		"/>
	</g>
	<g style="clip-path:url(#SVGID_00000052092234303145925880000015736954419277350569_);">
		<path style="fill:#FFFFFF;" d="M1734.233,1483.47l-157.044,52.834l-173.317,71.355l-189.567,13.161
			c-19.366,1.345-36.57,12.27-46.022,29.226c-9.452,16.955-9.697,37.335-0.657,54.514l183.33,348.385l4.424-2.328l-183.33-348.385
			c-8.25-15.678-8.025-34.277,0.601-49.751c8.626-15.474,24.327-25.445,42.001-26.672l190.376-13.218l173.99-71.632l156.811-52.75
			L1734.233,1483.47z"/>
	</g>
	<g style="clip-path:url(#SVGID_00000052092234303145925880000015736954419277350569_);">
		<polygon style="fill:#FFFFFF;" points="1086.571,1189.126 1081.594,1189.618 1104.681,1423.249 1230.591,1497.468 
			1411.669,2024.174 1416.397,2022.548 1234.719,1494.098 1109.408,1420.231 		"/>
	</g>
	<g style="clip-path:url(#SVGID_00000052092234303145925880000015736954419277350569_);">
		<polygon style="fill:#FFFFFF;" points="755.99,546.748 728.775,983.394 728.961,984.052 783.089,1175.065 764.679,1333.726 
			772.626,1334.648 791.219,1174.411 736.844,982.528 763.974,547.246 		"/>
	</g>
	<g style="clip-path:url(#SVGID_00000052092234303145925880000015736954419277350569_);">
		<path style="fill:#FFFFFF;" d="M2141.194,33.568l-4.984,0.408c0.046,0.553,4.475,56.085,0.098,119.544
			c-1.912,27.73,21.867,56.384,70.68,85.164c35.901,21.168,72.838,34.603,73.206,34.736c1.368,0.489,136.047,49.407,139.399,115.794
			c3.408,67.456-36.37,155.863-36.772,156.748l-0.056,0.133l-73.703,190.666c-5.573,14.418,1.611,30.708,16.017,36.314
			l196.706,76.558c14.137,5.5,30.352-1.427,36.15-15.438l77.544-187.354l-4.619-1.912l-77.544,187.354
			c-4.769,11.521-18.099,17.213-29.718,12.69l-196.707-76.558c-11.841-4.607-17.747-17.999-13.165-29.85l73.679-190.603
			c1.323-2.944,40.609-91.156,37.183-158.999c-1.486-29.434-26.06-58.652-73.038-86.844c-34.638-20.786-69.318-33.28-69.664-33.404
			c-1.441-0.521-144.85-53.064-140.589-114.851C2145.699,90.013,2141.239,34.126,2141.194,33.568z"/>
	</g>
	<g style="clip-path:url(#SVGID_00000052092234303145925880000015736954419277350569_);">
		<path style="fill:#FFFFFF;" d="M2504.301,43.04l-5.053,6.203c9.401,7.658,231.06,187.588,300.966,190.439
			c37.285,1.521,73.836,19.636,95.391,47.275c12.229,15.683,25.33,41.474,18.286,75.282c-7.13,34.225-26.056,38.859-54.703,45.875
			c-24.116,5.906-54.131,13.257-84.122,42.658c-27.033,26.501-43.868,72.099-50.038,135.525
			c-4.169,42.855-1.768,79.784-1.297,86.126c-5.744,14.441-80.82,203.006-94.032,226.068
			c-11.275,19.683-60.239,51.209-139.616,23.042c-76.047-26.986-217.052-68.565-218.468-68.982l-0.578-0.125
			c-1.241-0.173-125.531-17.43-251.169-31.462c-73.825-8.246-133.677-13.782-177.892-16.457
			c-75.321-4.555-90.097,0.069-94.549,4.606l5.709,5.604c1.646-1.676,12.879-6.789,88.351-2.225
			c44.078,2.666,103.791,8.19,177.479,16.421c122.559,13.689,243.844,30.449,250.674,31.396
			c7.182,2.12,143.565,42.432,217.767,68.763c76.808,27.257,133.504,0.851,149.233-26.604
			c13.951-24.352,91.57-219.651,94.868-227.953l0.348-0.877l-0.08-0.94c-0.133-1.553-12.543-155.987,48.89-216.213
			c28.425-27.865,56.052-34.631,80.426-40.601c28.156-6.896,52.473-12.85,60.632-52.015c5.982-28.717-1.053-57.779-19.81-81.832
			c-23.309-29.89-61.205-48.712-101.373-50.351C2733.274,228.945,2506.583,44.899,2504.301,43.04z"/>
	</g>
	<g style="clip-path:url(#SVGID_00000052092234303145925880000015736954419277350569_);">
		
			<rect x="2370.63" y="850.336" transform="matrix(0.0689 -0.9976 0.9976 0.0689 1401.2618 3207.0789)" style="fill:#FFFFFF;" width="96.283" height="5"/>
	</g>
	<g style="clip-path:url(#SVGID_00000052092234303145925880000015736954419277350569_);">
		<path style="fill:#FFFFFF;" d="M2116.3,556.543c-3.558,0-9.11,3.213-19.903,21.973c-6.615,11.498-14.561,27.685-23.615,48.109
			c-15.384,34.701-28.848,70.158-28.982,70.513l4.676,1.771c0.134-0.353,13.556-35.697,28.885-70.275
			c28.83-65.028,37.606-67.266,39.111-67.079c16.716,2.384,234.183,68.703,236.377,69.373l1.459-4.783
			c-8.977-2.738-220.034-67.102-237.131-69.539C2116.897,556.567,2116.605,556.543,2116.3,556.543z"/>
	</g>
	<g style="clip-path:url(#SVGID_00000052092234303145925880000015736954419277350569_);">
		<path style="fill:#FFFFFF;" d="M2278.693,605.708c-11.546,31.784-35.104,94.086-41.624,102.379
			c-2.682,3.408-12.788-0.514-23.487-4.666c-15.559-6.038-34.923-13.552-51.34-7.754c-12.581,4.444-24.469,29.58-35.332,74.71
			c-7.963,33.081-12.518,65.358-12.562,65.681l4.951,0.693c4.939-35.292,22.581-128.588,44.609-136.369
			c14.67-5.183,33.077,1.961,47.865,7.7c13.553,5.261,24.258,9.417,29.228,3.095c8.637-10.988,41.018-99.979,42.392-103.762
			L2278.693,605.708z"/>
	</g>
	<g style="clip-path:url(#SVGID_00000052092234303145925880000015736954419277350569_);">
		<polygon style="fill:#FFFFFF;" points="2679.252,793.45 2677.363,798.079 2774.546,837.75 2620.894,1188.368 2625.474,1190.376 
			2781.184,835.058 		"/>
	</g>
	<g style="clip-path:url(#SVGID_00000052092234303145925880000015736954419277350569_);">
		<path style="fill:#FFFFFF;" d="M2813.548,709.746l-38.953,128.838l3.017,0.308c0.362,0.037,36.655,3.779,74.432,11.406
			c62.352,12.589,80.65,25.614,85.022,34.324c4.413,8.793,4.628,35.112-19.408,110.566c-14.505,45.533-31.208,87.685-31.375,88.105
			l4.646,1.846c2.749-6.919,67.13-169.838,50.605-202.76c-7.085-14.117-36.873-26.562-88.536-36.99
			c-31.701-6.398-62.354-10.078-71.868-11.146l37.203-123.051L2813.548,709.746z"/>
	</g>
	<g style="clip-path:url(#SVGID_00000052092234303145925880000015736954419277350569_);">
		<path style="fill:#FFFFFF;" d="M1778.796,1478.395c-35.716,0-58.181,4.931-58.515,5.006l1.101,4.877
			c0.492-0.111,50.086-10.966,119.373,0.03c67.134,10.654,242.78,84.339,256.477,90.114l77.618,152.004l4.453-2.273l-78.445-153.626
			l-0.837-0.355c-1.876-0.795-188.357-79.673-258.482-90.802C1818.03,1479.64,1796.74,1478.395,1778.796,1478.395z"/>
	</g>
	<g style="clip-path:url(#SVGID_00000052092234303145925880000015736954419277350569_);">
		<path style="fill:#FFFFFF;" d="M818.356,1662.905c-41.526,0-71.053,0.703-71.494,0.713l0.122,4.999
			c0.661-0.016,66.998-1.593,140.96,0c30.135,0.649,55.937,17.409,76.69,49.812c15.642,24.422,22.343,49.019,22.409,49.265
			l4.83-1.293c-0.275-1.029-6.93-25.491-22.959-50.559c-21.411-33.485-49.373-51.544-80.863-52.223
			C863.237,1663.084,839.271,1662.905,818.356,1662.905z"/>
	</g>
	<g style="clip-path:url(#SVGID_00000052092234303145925880000015736954419277350569_);">
		<path style="fill:#FFFFFF;" d="M2393.274,157.342l-4.084,2.885c0.351,0.496,35.604,50.293,80.158,101.716
			c60.058,69.314,107.551,108.436,141.16,116.279c78.418,18.298,165.083,76.884,165.949,77.474l0.377,0.257l0.442,0.107
			c1.834,0.444,184.396,45.181,272.18,115.804l3.135-3.896c-46.379-37.311-118.473-67.077-170.785-85.477
			c-53.651-18.872-98.044-29.982-102.914-31.182c-6.377-4.276-90.605-60.07-167.247-77.954
			C2533.694,355.165,2394.67,159.319,2393.274,157.342z"/>
	</g>
	<g style="clip-path:url(#SVGID_00000052092234303145925880000015736954419277350569_);">
		<path style="fill:#FFFFFF;" d="M2682.719,178.807c-0.231,0.264-23.432,26.806-46.133,63.309
			c-21.03,33.816-45.941,83.383-45.192,127.474c0.64,37.6-8.328,85.384-25.25,134.55c-14.504,42.137-33.533,81.013-49.661,101.456
			l3.926,3.098c16.452-20.856,35.789-60.294,50.463-102.927c17.107-49.702,26.171-98.094,25.522-136.263
			c-1.398-82.256,89.168-186.355,90.083-187.397L2682.719,178.807z"/>
	</g>
	<g style="clip-path:url(#SVGID_00000052092234303145925880000015736954419277350569_);">
		<path style="fill:#FFFFFF;" d="M2788.104,62.106l-1.029,4.893c44.28,9.322,59.295,58.748,50.941,100.52
			c-8.897,44.486-38.775,65.91-39.076,66.121l2.873,4.092c1.295-0.909,31.82-22.804,41.105-69.232
			C2851.743,124.375,2835.531,72.09,2788.104,62.106z"/>
	</g>
	<g style="clip-path:url(#SVGID_00000052092234303145925880000015736954419277350569_);">
		<path style="fill:#FFFFFF;" d="M1413.055,1187.795l-1.074,4.883l186.974,41.123c96.004,21.116,160.018,68.63,196.813,104.771
			c39.824,39.115,57.141,73.569,57.311,73.912l4.48-2.221c-0.175-0.351-17.869-35.56-58.287-75.259
			c-23.716-23.294-50.525-43.594-79.684-60.336c-36.438-20.923-76.663-36.316-119.56-45.75L1413.055,1187.795z"/>
	</g>
	<g style="clip-path:url(#SVGID_00000052092234303145925880000015736954419277350569_);">
		<path style="fill:#FFFFFF;" d="M1868.594,1297.769c-49.747,0-92.915,17.032-93.389,17.222l1.858,4.643
			c0.51-0.204,51.639-20.349,106.207-16.336l0.367-4.986C1878.586,1297.939,1873.552,1297.769,1868.594,1297.769z"/>
	</g>
	<g style="clip-path:url(#SVGID_00000052092234303145925880000015736954419277350569_);">
		<path style="fill:#FFFFFF;" d="M1483.158,999.645l-4.949,0.709c5.423,37.821-19.688,74.435-41.709,98.49
			c-24.055,26.278-49.71,43.658-49.966,43.831l2.791,4.148c0.262-0.176,26.41-17.891,50.862-44.604
			C1472.81,1066.583,1487.67,1031.113,1483.158,999.645z"/>
	</g>
	<g style="clip-path:url(#SVGID_00000052092234303145925880000015736954419277350569_);">
		<path style="fill:#FFFFFF;" d="M435.633,1685.895c-45.08,0-98.735,3.569-102.125,3.798l0.337,4.988
			c1.254-0.084,125.744-8.366,155.596-0.085c2.687,0.745,9.672,7.859,16.486,57.693c4.117,30.109,7.61,71.492,10.384,123
			c4.726,87.769,5.727,175.642,5.737,176.519l5-0.055c-0.01-0.878-1.012-88.846-5.744-176.72
			c-2.781-51.647-6.288-93.171-10.423-123.417c-7.086-51.833-14.467-60.276-20.104-61.84
			C480.274,1686.864,459.112,1685.895,435.633,1685.895z"/>
	</g>
	<g style="clip-path:url(#SVGID_00000052092234303145925880000015736954419277350569_);">
		
			<rect x="355.177" y="1862.224" transform="matrix(0.9978 -0.066 0.066 0.9978 -122.0381 32.8588)" style="fill:#FFFFFF;" width="162.914" height="5"/>
	</g>
	<g style="clip-path:url(#SVGID_00000052092234303145925880000015736954419277350569_);">
		<path style="fill:#FFFFFF;" d="M-32.753,732.59l-0.376,4.986c3.023,0.227,302.819,23.245,344.828,60.067
			c18.743,16.429,28.609,51.692,27.783,99.296c-0.701,40.4-9.507,85.761-22.434,115.56c-19.29,44.469,10.463,173.221,32.187,267.232
			c6.938,30.024,12.93,55.954,15.764,72.765c6.277,37.238,31.19,47.924,57.567,59.237c23.804,10.21,48.418,20.767,65.363,51.02
			c35.962,64.204,0.108,227.248-0.259,228.887l4.88,1.091c0.092-0.414,9.299-41.941,13.866-90.973
			c6.16-66.127,1.408-113.717-14.125-141.448c-17.775-31.734-44.328-43.123-67.754-53.171
			c-26.177-11.228-48.784-20.924-54.607-55.473c-2.859-16.96-8.866-42.958-15.823-73.06
			c-20.351-88.068-51.106-221.159-32.472-264.116c13.167-30.352,22.135-76.459,22.847-117.463
			c0.853-49.099-9.619-85.729-29.486-103.143C271.74,755.97-20.341,733.528-32.753,732.59z"/>
	</g>
	<g style="clip-path:url(#SVGID_00000052092234303145925880000015736954419277350569_);">
		<path style="fill:#FFFFFF;" d="M131.181,1254.83c-5.368,0-9.882,0.306-13.355,0.972c-5.768,1.105-10.523,4.522-14.136,10.155
			c-22.105,34.47,3.733,149.329,12.179,183.711c10.838,44.122,14.923,275.253,9.497,317.058c-0.498,3.831-2.57,6.964-6.337,9.582
			c-33.988,23.616-179.238-9.595-180.701-9.932l-1.126,4.872c6.062,1.4,148.886,34.037,184.68,9.167
			c4.922-3.42,7.763-7.81,8.442-13.045c2.716-20.927,3.286-86.646,1.386-159.815c-2.08-80.076-6.187-139.545-10.985-159.078
			c-8.326-33.893-33.855-147.027-12.825-179.819c2.883-4.496,6.438-7.095,10.868-7.944c39.96-7.665,231.411,35.812,235.962,36.851
			l288.138,83.156l244.604,107.622h93.148v-5h-92.096l-243.948-107.333l-288.663-83.304
			C348.57,1291.024,189.591,1254.832,131.181,1254.83z"/>
	</g>
	<g style="clip-path:url(#SVGID_00000052092234303145925880000015736954419277350569_);">
		<path style="fill:#FFFFFF;" d="M442.145,1202.948c-17.246-0.001-32.188,2.494-39.392,8.808l-1.032,0.904l15.64,101.469
			l4.941-0.762l-15.21-98.681c18.874-13.647,94.073-3.981,116.187,9.042c17.234,10.15,19.154,94.295,18.44,125.861l4.999,0.113
			c0.006-0.288,0.628-29.203-1.489-59.349c-2.934-41.766-9.283-64.969-19.413-70.935
			C511.515,1210.996,473.117,1202.949,442.145,1202.948z"/>
	</g>
	<g style="clip-path:url(#SVGID_00000052092234303145925880000015736954419277350569_);">
		<path style="fill:#FFFFFF;" d="M592.462,1640.876c-17.878-0.001-40.765,6.912-49.117,10.419
			c-3.645,1.531-10.432,4.38,2.198,189.569c6.184,90.678,14.188,181.807,14.268,182.717l4.981-0.438
			c-0.078-0.884-7.852-89.388-13.991-178.679c-10.974-159.615-7.407-185.294-5.214-188.685c12.258-5.057,47.547-14.444,60.891-7.364
			c2.544,1.351,4.021,3.207,4.515,5.676c3.846,19.229,10.596,377.546,10.664,381.164l4.999-0.094
			c-0.277-14.788-6.827-362.386-10.759-382.05c-0.796-3.978-3.176-7.043-7.074-9.112
			C604.605,1641.759,598.852,1640.876,592.462,1640.876z"/>
	</g>
	<g style="clip-path:url(#SVGID_00000052092234303145925880000015736954419277350569_);">
		
			<rect x="871.186" y="631.268" transform="matrix(0.2021 -0.9794 0.9794 0.2021 -46.9884 1465.0836)" style="fill:#FFFFFF;" width="9" height="260.225"/>
	</g>
	<g style="clip-path:url(#SVGID_00000052092234303145925880000015736954419277350569_);">
		
			<rect x="876.355" y="588.819" transform="matrix(0.1747 -0.9846 0.9846 0.1747 16.9231 1462.4705)" style="fill:#FFFFFF;" width="9" height="264.642"/>
	</g>
	<g style="clip-path:url(#SVGID_00000052092234303145925880000015736954419277350569_);">
		<path style="fill:#FFFFFF;" d="M986.531,848.902l-1.452,7.867c0.721,0.133,72.772,13.598,129.989,38.399
			c33.77,14.639,73.208,38.162,69.319,67.1c-9.209,68.515-85.332,133.298-86.1,133.943l5.152,6.121
			c0.808-0.68,20.014-16.938,40.692-42.197c19.197-23.45,43.141-59.279,48.184-96.801c3.657-27.213-21.263-52.617-74.066-75.506
			C1060.183,862.658,987.261,849.037,986.531,848.902z"/>
	</g>
	<g style="clip-path:url(#SVGID_00000052092234303145925880000015736954419277350569_);">
		
			<rect x="1063.679" y="802.319" transform="matrix(0.4421 -0.897 0.897 0.4421 -76.8249 1489.1254)" style="fill:#FFFFFF;" width="189.926" height="8"/>
	</g>
	<g style="clip-path:url(#SVGID_00000052092234303145925880000015736954419277350569_);">
		
			<rect x="1327.426" y="856.291" transform="matrix(0.1328 -0.9911 0.9911 0.1328 157.2427 2192.2756)" style="fill:#FFFFFF;" width="8.001" height="299.976"/>
	</g>
	<g style="clip-path:url(#SVGID_00000052092234303145925880000015736954419277350569_);">
		<path style="fill:#FFFFFF;" d="M1151.672,603.866l-0.93,0.797c-35.465,30.39-36.552,56.789-36.581,57.898l4.998,0.14
			c0.008-0.249,1.194-24.954,33.882-53.416c22.035,5.704,92.738,53.322,181.421,122.261c39.235,30.5,75.941,60.577,103.355,84.692
			c41.761,36.734,45.869,45.474,46.134,47.276c2.689,18.344-34.585,49.354-49.175,59.755l2.902,4.072
			c2.243-1.599,54.901-39.445,51.22-64.552c-2.289-15.614-96.225-92.325-151.367-135.191
			c-69.018-53.651-158.791-118.184-184.66-123.485L1151.672,603.866z"/>
	</g>
	<g style="clip-path:url(#SVGID_00000052092234303145925880000015736954419277350569_);">
		<path style="fill:#FFFFFF;" d="M1217.105,389.895l-1.734,7.811c2.187,0.485,219.709,49.402,310.617,119.994
			c91.345,70.931,258.002,255.945,259.675,257.806l5.949-5.348c-1.678-1.866-168.814-187.412-260.718-258.776
			c-38.811-30.137-103.441-59.748-192.097-88.011C1272.923,402.37,1217.656,390.018,1217.105,389.895z"/>
	</g>
	<g style="clip-path:url(#SVGID_00000052092234303145925880000015736954419277350569_);">
		
			<rect x="1297.586" y="625.398" transform="matrix(0.6032 -0.7976 0.7976 0.6032 70.0626 1399.6169)" style="fill:#FFFFFF;" width="288" height="8"/>
	</g>
	<g style="clip-path:url(#SVGID_00000052092234303145925880000015736954419277350569_);">
		<path style="fill:#FFFFFF;" d="M819.644,832.382c-7.3,0-13.941,2.888-19.756,8.594c-32.526,31.916-30.292,146.808-30.181,151.683
			l7.998-0.182c-0.026-1.159-2.281-116.292,27.787-145.792c4.545-4.461,9.446-6.512,14.99-6.285
			c49.458,2.065,157.865,35.451,158.955,35.788l2.364-7.643c-4.488-1.389-110.498-34.03-160.985-36.138
			C820.423,832.391,820.032,832.382,819.644,832.382z"/>
	</g>
	<g style="clip-path:url(#SVGID_00000052092234303145925880000015736954419277350569_);">
		<path style="fill:#FFFFFF;" d="M1946.893-112.223c-0.32,0.192-32.399,19.577-69.659,50.613
			c-34.481,28.723-80.64,73.63-104.714,124.45c-32.403,68.4-19.542,119.343-4.65,178.329c6.574,26.04,13.372,52.968,16.792,83.615
			c6.568,58.857,24.663,86.047,40.627,110.035c11.626,17.471,21.666,32.559,26.093,57.246
			c8.412,46.914-141.345,112.328-199.758,133.574l2.734,7.518c0.535-0.194,54.136-19.779,105.708-46.535
			c70.663-36.659,104.035-68.948,99.19-95.969c-4.721-26.324-15.692-42.81-27.308-60.266c-15.46-23.232-32.983-49.562-39.336-106.49
			c-3.48-31.19-10.347-58.387-16.986-84.688c-14.515-57.49-27.049-107.142,4.124-172.945
			c44.962-94.915,170.006-170.876,171.264-171.633L1946.893-112.223z"/>
	</g>
	<g style="clip-path:url(#SVGID_00000052092234303145925880000015736954419277350569_);">
		
			<rect x="1793.749" y="343.129" transform="matrix(0.6674 -0.7447 0.7447 0.6674 388.2794 1560.6609)" style="fill:#FFFFFF;" width="295.28" height="5"/>
	</g>
	<g style="clip-path:url(#SVGID_00000052092234303145925880000015736954419277350569_);">
		
			<rect x="2070.83" y="246.833" transform="matrix(0.6782 -0.7349 0.7349 0.6782 414.3522 1634.3165)" style="fill:#FFFFFF;" width="4.999" height="194.39"/>
	</g>
	<g style="clip-path:url(#SVGID_00000052092234303145925880000015736954419277350569_);">
		
			<rect x="2021" y="296.663" transform="matrix(0.6782 -0.7349 0.7349 0.6782 361.6997 1613.7325)" style="fill:#FFFFFF;" width="4.999" height="194.39"/>
	</g>
	<g style="clip-path:url(#SVGID_00000052092234303145925880000015736954419277350569_);">
		
			<rect x="1975.402" y="351.416" transform="matrix(0.6782 -0.7349 0.7349 0.6782 309.595 1596.6454)" style="fill:#FFFFFF;" width="4.999" height="186.801"/>
	</g>
	<g style="clip-path:url(#SVGID_00000052092234303145925880000015736954419277350569_);">
		
			<rect x="1928.994" y="402.277" transform="matrix(0.6782 -0.7349 0.7349 0.6782 258.6256 1578.2913)" style="fill:#FFFFFF;" width="4.999" height="183.11"/>
	</g>
	<g style="clip-path:url(#SVGID_00000052092234303145925880000015736954419277350569_);">
		<path style="fill:#FFFFFF;" d="M1899.048,532.592c-0.33,0.408-33.249,40.901-56.946,48.338
			c-16.576,5.203-23.604,32.658-30.401,59.21c-3.943,15.403-7.668,29.952-12.797,37.515c-13.113,19.336-78.789,17.886-79.459,17.87
			l-0.128,4.998c2.813,0.072,69.089,1.521,83.726-20.062c5.618-8.284,9.447-23.244,13.502-39.081
			c6.157-24.051,13.135-51.311,27.056-55.679c25.137-7.89,57.953-48.253,59.338-49.967L1899.048,532.592z"/>
	</g>
	<g style="clip-path:url(#SVGID_00000052092234303145925880000015736954419277350569_);">
		
			<rect x="1845.223" y="614.714" transform="matrix(0.6574 -0.7535 0.7535 0.6574 139.3685 1616.7184)" style="fill:#FFFFFF;" width="5" height="80.74"/>
	</g>
	<g style="clip-path:url(#SVGID_00000052092234303145925880000015736954419277350569_);">
		<path style="fill:#FFFFFF;" d="M1514.108,150.034c-0.022,0.677-2.283,68.186,0.003,110.402
			c2.628,48.52,14.241,117.039,84.44,151.75c69.903,34.562,133.574,170.808,134.21,172.18l4.537-2.1
			c-0.16-0.347-16.319-35.104-41.028-73.723c-33.297-52.043-65.429-85.97-95.502-100.84
			c-67.853-33.55-79.104-100.271-81.665-147.537c-2.274-42-0.021-109.288,0.003-109.963L1514.108,150.034z"/>
	</g>
	<g style="clip-path:url(#SVGID_00000052092234303145925880000015736954419277350569_);">
		
			<rect x="1676.599" y="466.825" transform="matrix(0.8525 -0.5227 0.5227 0.8525 8.8728 970.0946)" style="fill:#FFFFFF;" width="93.775" height="4.999"/>
	</g>
	<g style="clip-path:url(#SVGID_00000052092234303145925880000015736954419277350569_);">
		<path style="fill:#FFFFFF;" d="M1749.218,341.765c-1.285,0.605-31.673,15.207-48.016,50.997
			c-15.212,33.312-83.481,25.182-84.166,25.095l-0.621,4.961c2.955,0.372,72.615,8.638,89.336-27.98
			c15.588-34.138,45.295-48.408,45.594-48.548L1749.218,341.765z"/>
	</g>
	<g style="clip-path:url(#SVGID_00000052092234303145925880000015736954419277350569_);">
		<path style="fill:#FFFFFF;" d="M1746.923,252.113c-5.267,0-11.415,0.189-18.604,0.617c-22.24,1.325-51.822,4.793-87.925,10.308
			c-61.403,9.381-121.254,21.608-121.852,21.73l1.004,4.898c0.597-0.122,60.339-12.328,121.619-21.689
			c106.777-16.311,129.595-10.787,133.694-6.043l3.783-3.269C1776.081,255.7,1769.882,252.113,1746.923,252.113z"/>
	</g>
	<g style="clip-path:url(#SVGID_00000052092234303145925880000015736954419277350569_);">
		<path style="fill:#FFFFFF;" d="M1514.974,192.21c-46.919,11.753-87.465,30.814-120.512,56.655
			c-26.472,20.701-48.209,45.766-64.607,74.499c-27.932,48.943-30.702,92.27-30.728,92.702l4.992,0.286
			c0.024-0.422,2.77-42.767,30.198-90.72c25.285-44.205,77.362-102.395,181.871-128.573L1514.974,192.21z"/>
	</g>
	<g style="clip-path:url(#SVGID_00000052092234303145925880000015736954419277350569_);">
		<path style="fill:#FFFFFF;" d="M1356.89,290.097l-4.316,2.523c0.494,0.845,49.435,84.645,53.601,101.771
			c3.186,13.1,39.883,29.849,55.513,36.441c32.08,13.53,66.954,23.706,93.288,27.22c53.812,7.178,128.713,157.647,129.464,159.167
			l4.482-2.215c-3.111-6.3-76.857-154.382-133.285-161.909c-25.531-3.405-60.786-13.701-92.006-26.87
			c-36.657-15.462-51.244-27.449-52.599-33.016C1406.695,375.378,1358.922,293.571,1356.89,290.097z"/>
	</g>
	<g style="clip-path:url(#SVGID_00000052092234303145925880000015736954419277350569_);">
		
			<rect x="1431.832" y="383.86" transform="matrix(0.8345 -0.5509 0.5509 0.8345 33.7989 885.2632)" style="fill:#FFFFFF;" width="117.907" height="4.999"/>
	</g>
	<g style="clip-path:url(#SVGID_00000052092234303145925880000015736954419277350569_);">
		<path style="fill:#FFFFFF;" d="M1612.032,1767.931l-4.681,1.758c0.1,0.265,9.897,26.82,6.219,53.8
			c-1.872,13.731-16.421,18.096-33.267,23.149c-14.463,4.339-30.855,9.256-42.138,21.233c-25.031,26.573,9.321,78.113,10.796,80.294
			l4.143-2.8c-0.339-0.501-33.595-50.396-11.3-74.065c10.363-11.002,25.397-15.512,39.936-19.873
			c17.73-5.319,34.478-10.343,36.785-27.263C1622.379,1795.9,1612.457,1769.06,1612.032,1767.931z"/>
	</g>
	<g style="clip-path:url(#SVGID_00000052092234303145925880000015736954419277350569_);">
		
			<rect x="1615.38" y="1875.22" transform="matrix(0.9722 -0.2343 0.2343 0.9722 -393.4533 443.5553)" style="fill:#FFFFFF;" width="109.403" height="5"/>
	</g>
	<g style="clip-path:url(#SVGID_00000052092234303145925880000015736954419277350569_);">
		<path style="fill:#FFFFFF;" d="M1904.204,1756.381c-5.684,0.519-139.409,12.854-156.257,25.815
			c-2.557,1.967-4.008,4.948-4.312,8.861c-1.795,23.032,38.079,77.875,55.486,96.206c9.262,9.756,38.99,5.938,90.884-11.681
			c37.471-12.721,72.917-28.257,73.271-28.413l-2.012-4.577c-0.352,0.155-35.625,15.614-72.894,28.265
			c-64.436,21.872-81.305,17.51-85.624,12.962c-17.311-18.23-55.712-72.034-54.127-92.374c0.193-2.476,0.971-4.205,2.377-5.287
			c13.037-10.028,115.343-21.301,153.663-24.798L1904.204,1756.381z"/>
	</g>
	<g style="clip-path:url(#SVGID_00000052092234303145925880000015736954419277350569_);">
		<path style="fill:#FFFFFF;" d="M1335.528,1519.068c-13.793,0-22.048,2.924-22.665,3.15c-0.862,0.317-86.555,31.738-128.115,42.129
			c-40.86,10.215-45.967,20.546-55.235,39.301c-0.738,1.494-1.507,3.049-2.327,4.673c-1.729,3.419-10.797,11.449-57.527,12.149
			c-26.587,0.398-52.154-1.857-52.409-1.879l-0.713,7.968c0.259,0.024,26.251,2.316,53.242,1.911
			c38.094-0.571,59.208-5.98,64.546-16.539c0.833-1.646,1.612-3.223,2.36-4.738c8.744-17.693,12.734-25.768,50.003-35.085
			c41.977-10.494,128.068-42.062,128.933-42.38c0.239-0.087,25.688-8.911,62.712,6.519c9.971,4.155,24.634,18.347,41.611,34.78
			c47.726,46.193,119.849,115.988,207.56,86.462l174.132-48.436c8.166-0.318,119.982-4.568,146.649-0.035
			c21.766,3.7,64.326,62.86,78.889,85.343l6.715-4.349c-0.135-0.208-13.626-20.984-30.413-42.071
			c-23.007-28.898-41.124-44.647-53.851-46.811c-28.357-4.821-143.869-0.251-148.772-0.053c-0.309,0.012-0.614,0.06-0.912,0.143
			l-174.682,48.588c-0.069,0.019-0.139,0.041-0.207,0.063c-83.146,28.063-153.192-39.731-199.544-84.594
			c-18.285-17.699-32.729-31.678-44.097-36.416C1362.98,1521.182,1347.253,1519.068,1335.528,1519.068z"/>
	</g>
	<g style="clip-path:url(#SVGID_00000052092234303145925880000015736954419277350569_);">
		<path style="fill:#FFFFFF;" d="M948.922-26.49c-5.751,18.43-4.601,33.731,3.421,45.481c18.661,27.335,70.196,30.962,120.033,34.47
			c34.381,2.42,66.857,4.705,84.295,14.572c17.702,10.016,32.41,14.944,44.229,18.905c23.922,8.017,31.98,10.718,27.789,42.437
			c-7.028,53.201-47.418,85.738-127.108,102.395c-32.202,6.732-52.377,4.615-70.178,2.748c-28.795-3.018-49.598-5.2-97.052,33.291
			c-72.644,58.919-341.847-0.194-344.559-0.798l-1.74,7.809c0.685,0.152,69.366,15.348,146.33,22.889
			c104.087,10.195,173.059,2.228,205.008-23.686c44.878-36.401,63.298-34.47,91.178-31.547c17.474,1.832,39.222,4.114,72.649-2.875
			c42.656-8.915,74.168-22.34,96.336-41.041c21.254-17.932,33.379-40.219,37.067-68.137c5.054-38.256-8.526-42.807-33.179-51.068
			c-11.493-3.853-25.797-8.646-42.831-18.283c-19.013-10.758-52.364-13.104-87.673-15.59c-47.938-3.374-97.509-6.862-113.988-31
			c-6.665-9.764-7.448-22.386-2.392-38.588L948.922-26.49z"/>
	</g>
	<g style="clip-path:url(#SVGID_00000052092234303145925880000015736954419277350569_);">
		<path style="fill:#FFFFFF;" d="M830.027,53.142c-0.843,0-1.631,0.233-2.095,0.37c-15.857,4.688-104.04,59.373-116.425,116.656
			c-9.611,44.449,7.952,75.38,22.064,100.233c5.415,9.536,10.091,17.771,12.289,25.259l4.798-1.408
			c-2.361-8.044-7.17-16.513-12.738-26.319c-13.692-24.114-30.733-54.124-21.526-96.708c6.6-30.524,35.444-59.24,58.479-77.955
			c27.261-22.149,51.976-34.929,55.201-35.131c-0.197,0.026-0.777-0.072-1.299-0.593l3.527-3.543
			C831.638,53.342,830.809,53.142,830.027,53.142z"/>
	</g>
	<g style="clip-path:url(#SVGID_00000052092234303145925880000015736954419277350569_);">
		<path style="fill:#FFFFFF;" d="M730.946-63.736c-0.456,0.51-45.738,51.638-55.235,109.472
			c-9.401,57.248-20.003,230.48-20.108,232.224l4.991,0.303c0.106-1.74,10.691-174.718,20.051-231.716
			c9.257-56.372,53.581-106.448,54.027-106.947L730.946-63.736z"/>
	</g>
	<g style="clip-path:url(#SVGID_00000052092234303145925880000015736954419277350569_);">
		<path style="fill:#FFFFFF;" d="M1160.177,282.533c-5.542,0-10.646,0.714-15.111,2.335c-13.667,4.961-35.453,5.674-58.518,6.429
			c-37.2,1.217-75.666,2.476-85.67,22.461l4.471,2.238c8.672-17.323,45.625-18.533,81.362-19.702
			c23.474-0.768,45.646-1.493,60.062-6.727c34.72-12.602,116.465,36.417,117.287,36.914l2.586-4.279
			C1263.623,320.375,1200.495,282.533,1160.177,282.533z"/>
	</g>
	<g style="clip-path:url(#SVGID_00000052092234303145925880000015736954419277350569_);">
		
			<rect x="1096.12" y="332.445" transform="matrix(0.4992 -0.8665 0.8665 0.4992 286.2924 1165.2372)" style="fill:#FFFFFF;" width="110.164" height="5"/>
	</g>
	<g style="clip-path:url(#SVGID_00000052092234303145925880000015736954419277350569_);">
		<path style="fill:#FFFFFF;" d="M835.861,194.531c-1.217,29.076,36.037,98.662,37.623,101.61l4.403-2.369
			c-0.382-0.71-38.191-71.319-37.03-99.032L835.861,194.531z"/>
	</g>
	<g style="clip-path:url(#SVGID_00000052092234303145925880000015736954419277350569_);">
		<path style="fill:#FFFFFF;" d="M2037.71-80.616c-0.657,1.26-16.097,31.547-16.71,90.623
			c-0.598,57.56-90.486,161.807-91.394,162.853l3.775,3.277c3.757-4.328,92.001-106.686,92.618-166.077
			c0.601-57.89,15.988-88.067,16.144-88.365L2037.71-80.616z"/>
	</g>
	<g style="clip-path:url(#SVGID_00000052092234303145925880000015736954419277350569_);">
		<path style="fill:#FFFFFF;" d="M1540.058,54.556l-0.146,4.998c88.48,2.578,223.052,8.318,231.134,13.568
			c-0.409-0.266-0.93-1.254-0.509-2.275l4.623,1.904c0.372-0.902,0.275-1.897-0.265-2.729c-1.428-2.2-3.817-5.885-120.261-11.185
			C1597.693,56.247,1540.628,54.573,1540.058,54.556z"/>
	</g>
	<g style="clip-path:url(#SVGID_00000052092234303145925880000015736954419277350569_);">
		<path style="fill:#FFFFFF;" d="M2351.078-118.047c-0.028,1.062-3.333,107.357-43.51,210.029
			c-20.894,53.394-71.965,104.162-111.13,137.35c-42.532,36.041-80.551,59.667-80.931,59.901l2.631,4.252
			c0.382-0.236,38.719-24.059,81.532-60.339c39.604-33.56,91.28-84.977,112.554-139.342
			c40.505-103.513,43.823-210.646,43.852-211.717L2351.078-118.047z"/>
	</g>
	<g style="clip-path:url(#SVGID_00000052092234303145925880000015736954419277350569_);">
		
			<rect x="2017.583" y="137.097" transform="matrix(0.8634 -0.5044 0.5044 0.8634 227.4314 1119.3485)" style="fill:#FFFFFF;" width="327.259" height="4.999"/>
	</g>
	<g style="clip-path:url(#SVGID_00000052092234303145925880000015736954419277350569_);">
		<path style="fill:#FFFFFF;" d="M499.884-32.809l-101.589,89.29c-5.067,3.407-39.651,27.121-76.986,64.026
			c-53.686,53.068-85.44,105.506-94.383,155.854c-5.113,28.79-0.266,57.519,14.406,85.391c11.464,21.777,28.932,43.021,51.918,63.14
			c33.759,29.549,69.035,47.715,78.543,52.356c6.567,9.157,34.275,48.559,58.463,94.499c35.327,67.097,47.418,117.35,34.965,145.326
			c-35.329,79.367,47.588,222.518,51.135,228.572l17.257-10.109l-8.628,5.055l8.629-5.053
			c-0.816-1.396-81.286-140.318-50.121-210.332c15.264-34.29,3.271-89.125-35.647-162.981
			c-28.218-53.551-60.044-97.002-61.385-98.825l-1.528-2.077l-2.342-1.08c-0.392-0.181-40.034-18.676-76.5-50.69
			c-47.362-41.581-67.372-85.217-59.473-129.692c19.695-110.895,161.87-206.145,163.304-207.094l0.569-0.377l0.513-0.451
			l102.084-89.726L499.884-32.809z"/>
	</g>
	<g style="clip-path:url(#SVGID_00000052092234303145925880000015736954419277350569_);">
		<path style="fill:#FFFFFF;" d="M457.229,786.128c-41.313,52.36-79.121,127.877-79.498,128.634l-0.453,0.909l39.92,125.014
			l4.763-1.521l-39.3-123.073c4.405-8.701,39.943-78.008,78.493-126.864L457.229,786.128z"/>
	</g>
	<g style="clip-path:url(#SVGID_00000052092234303145925880000015736954419277350569_);">
		<path style="fill:#FFFFFF;" d="M323.808,602.198c-7.272,0-14.28,0.589-20.87,1.912c-20.994,4.216-42.203,12.28-64.656,20.817
			c-41.598,15.817-84.616,32.173-133.991,27.668c-76.106-6.943-165.413-14.841-166.306-14.92l-0.44,4.981
			c0.893,0.079,90.193,7.976,166.292,14.918c50.531,4.608,94.094-11.954,136.222-27.973c22.255-8.462,43.276-16.455,63.864-20.589
			c57.691-11.579,153.171,36.836,154.129,37.327l2.279-4.451C456.798,640.08,382.077,602.198,323.808,602.198z"/>
	</g>
	<g style="clip-path:url(#SVGID_00000052092234303145925880000015736954419277350569_);">
		<rect x="310.847" y="606.561" style="fill:#FFFFFF;" width="5" height="189.203"/>
	</g>
	<g style="clip-path:url(#SVGID_00000052092234303145925880000015736954419277350569_);">
		<path style="fill:#FFFFFF;" d="M294.47,167.021l-4.833,1.28c0.671,2.536,17,62.298,64.994,78.857
			c45.464,15.688,110.311,25.491,115.027,26.191l54.451,20.351l1.75-4.684l-54.95-20.537l-0.266-0.038
			c-0.673-0.099-67.866-9.959-114.382-26.01C310.813,226.751,294.629,167.617,294.47,167.021z"/>
	</g>
	<g style="clip-path:url(#SVGID_00000052092234303145925880000015736954419277350569_);">
		
			<rect x="303.082" y="172.699" transform="matrix(0.7207 -0.6933 0.6933 0.7207 -17.8896 305.997)" style="fill:#FFFFFF;" width="135.41" height="5"/>
	</g>
	<g style="clip-path:url(#SVGID_00000052092234303145925880000015736954419277350569_);">
		
			<rect x="354.437" y="200.388" transform="matrix(0.7207 -0.6933 0.6933 0.7207 -22.7413 349.3341)" style="fill:#FFFFFF;" width="135.41" height="5"/>
	</g>
	<g style="clip-path:url(#SVGID_00000052092234303145925880000015736954419277350569_);">
		
			<rect x="420.035" y="216.773" transform="matrix(0.7207 -0.6933 0.6933 0.7207 -15.7759 399.3925)" style="fill:#FFFFFF;" width="135.411" height="5"/>
	</g>
	<g style="clip-path:url(#SVGID_00000052092234303145925880000015736954419277350569_);">
		<path style="fill:#FFFFFF;" d="M431.308,27.154c-49.33,0-105.502,6.117-150.438,27.646
			c-48.367,23.174-76.468,46.259-101.26,66.627C145.357,149.566,120.609,169.9,61.5,172.798l-123.72-0.8l-0.032,5l123.858,0.8
			l0.069-0.003c60.808-2.967,87.418-24.828,121.108-52.505c24.574-20.188,52.425-43.069,100.247-65.98
			c59.404-28.461,139.178-29.511,195.641-25.377c61.342,4.49,109.189,15.901,109.665,16.017l1.172-4.861
			c-0.479-0.115-48.657-11.61-110.39-16.136C464.49,27.88,448.302,27.154,431.308,27.154z"/>
	</g>
	<g style="clip-path:url(#SVGID_00000052092234303145925880000015736954419277350569_);">
		<path style="fill:#FFFFFF;" d="M218.681-90.79l-4.928,0.848c0.133,0.771,13.116,78.003,0.01,145.103
			c-2.564,13.125-5.187,45.716-5.297,47.097l4.984,0.399c0.027-0.335,2.711-33.689,5.22-46.536
			C231.956-11.899,218.816-90.008,218.681-90.79z"/>
	</g>
	<g style="clip-path:url(#SVGID_00000052092234303145925880000015736954419277350569_);">
		<path style="fill:#FFFFFF;" d="M77.942,489.559c-93.847,0-155.616,1.375-156.69,1.399l1.146,49.986
			c1.878-0.043,190.41-4.231,410.82,2.163c290.219,8.42,503.487,31.196,616.749,65.869
			c189.448,57.994,415.292,280.312,580.196,442.643c75.041,73.87,134.312,132.217,173.515,158.514
			c48.913,32.81,105.501,59.809,160.226,85.918c82.771,39.49,160.953,76.791,202.939,128.465
			c59.007,72.623,199.792,482.983,249.06,634.974l47.564-15.418c-0.448-1.381-45.39-139.83-98.914-287.753
			c-31.5-87.056-59.79-160.38-84.086-217.937c-31.515-74.66-55.988-122.219-74.818-145.396
			c-49.092-60.42-132.213-100.077-220.215-142.062c-53.105-25.337-108.02-51.536-153.902-82.314
			c-35.314-23.689-96.012-83.438-166.292-152.622c-80.884-79.622-181.547-178.713-285.102-263.955
			c-122.694-100.996-225.907-163.429-315.535-190.866c-119.19-36.486-331.208-59.38-630.164-68.044
			C238.811,490.35,149.143,489.559,77.942,489.559z"/>
	</g>
	<g style="clip-path:url(#SVGID_00000052092234303145925880000015736954419277350569_);">
		<g>
			
				<rect x="599.155" y="-110.131" transform="matrix(0.9988 -0.0494 0.0494 0.9988 -47.8095 32.0428)" style="fill:#FFFFFF;" width="50" height="2186.186"/>
		</g>
	</g>
	<g style="clip-path:url(#SVGID_00000052092234303145925880000015736954419277350569_);">
		<path style="fill:#FFFFFF;" d="M-77.237,846.434l-1.877,19.912c2.847,0.268,288.211,27.468,589.871,81.827
			c397.141,71.565,641.74,157.005,707.352,247.086c66.464,91.248,139.484,276.734,211.168,536.406
			c54.307,196.725,89.017,368.097,89.361,369.805l19.605-3.952c-0.346-1.714-35.195-173.779-89.688-371.175
			c-32.029-116.027-64.489-218.018-96.477-303.14c-40.17-106.896-79.805-187.549-117.804-239.719
			c-20.499-28.144-56.385-55.743-106.659-82.031c-44.956-23.508-102.647-46.646-171.47-68.772
			c-115.422-37.107-264.12-72.169-441.964-104.212C211.707,873.968-74.383,846.704-77.237,846.434z"/>
	</g>
	<g style="clip-path:url(#SVGID_00000052092234303145925880000015736954419277350569_);">
		<polygon style="fill:#FFFFFF;" points="1520.276,-53.502 1033.247,635.273 1032.785,637.011 926.776,1036.122 926.896,1037.789 
			954.88,1427.818 955.121,1428.727 1121.089,2054.345 1140.421,2049.217 974.694,1424.51 946.964,1038.024 1051.653,643.883 
			1536.606,-41.956 		"/>
	</g>
	<g style="clip-path:url(#SVGID_00000052092234303145925880000015736954419277350569_);">
		<polygon style="fill:#FFFFFF;" points="2586.756,-54.733 1528.752,1023.38 1628.087,1365.839 1628.958,1367.133 
			2108.525,2080.299 2125.121,2069.139 1646.425,1357.269 1551.219,1029.041 2601.031,-40.725 		"/>
	</g>
	<g style="clip-path:url(#SVGID_00000052092234303145925880000015736954419277350569_);">
		<path style="fill:#FFFFFF;" d="M189.133,1101.342c-5.754,0-11.57,0.017-17.474,0.049c-129.541,0.714-249.363,9.3-250.558,9.387
			l1.446,19.947c1.19-0.086,120.437-8.629,249.322-9.334c213.413-1.217,288.098,19.149,313.19,36.4
			c91.204,62.703,303.346,201.271,305.478,202.663c7.482,4.854,14.7,10.399,22.341,16.27
			c45.131,34.675,101.301,77.83,295.338,54.946c100.541-11.857,166.214-29.598,218.982-43.853
			c67.715-18.292,116.647-31.506,200.56-25.76c157.024,10.756,258.248,26.155,375.729,80.479
			c119.292,55.16,253.515,127.135,254.856,127.856l9.463-17.62c-1.348-0.723-136.08-72.974-255.925-128.389
			c-120.312-55.631-223.293-71.356-382.757-82.278c-87.261-5.978-140.167,8.312-207.143,26.405
			c-54.854,14.818-117.025,31.613-216.108,43.298c-185.964,21.932-238.553-18.476-280.811-50.943
			c-7.966-6.12-15.491-11.902-23.616-17.173c-2.105-1.374-214.05-139.813-305.057-202.381
			C457.798,1114.779,354.457,1101.342,189.133,1101.342z"/>
	</g>
	
		<circle style="clip-path:url(#SVGID_00000052092234303145925880000015736954419277350569_);fill:#B4D682;" cx="936.87" cy="1037.072" r="74.271"/>
	<g style="clip-path:url(#SVGID_00000052092234303145925880000015736954419277350569_);">
		<path style="fill:#FFFFFF;" d="M686.913-151.95l-17.47,9.736c0.411,0.737,41.801,74.592,103.611,149.313
			c36.46,44.077,72.849,79.918,108.155,106.527c44.863,33.811,88.271,52.85,129.019,56.586
			c67.767,6.216,182.094,0.372,314.473-6.394c201.245-10.285,429.338-21.942,557.697,6.204
			c114.281,25.059,211.345,118.191,314.106,216.792c84.119,80.713,171.103,164.174,270.372,209.676
			c90.166,41.328,252.526,89.088,482.571,141.951c171.064,39.31,317.636,66.876,319.097,67.149l3.686-19.656
			c-1.457-0.273-147.692-27.777-318.373-67.001c-225.464-51.813-390.978-100.44-478.646-140.625
			c-96.196-44.093-181.939-126.363-264.859-205.926c-50.073-48.046-101.852-97.728-154.684-137.492
			c-59.734-44.96-115.01-72.569-168.986-84.404c-61.357-13.455-144.373-18.032-236.07-18.033
			c-104.051-0.002-219.29,5.89-326.931,11.391c-131.615,6.728-245.282,12.535-311.626,6.452
			c-84.601-7.759-168.285-89.086-223.59-155.944C727.809-78.974,687.315-151.228,686.913-151.95z"/>
	</g>
	<g style="clip-path:url(#SVGID_00000052092234303145925880000015736954419277350569_);">
		<path style="fill:#FFFFFF;" d="M1026.141,1037.073c0,49.224-40.047,89.271-89.271,89.271c-49.225,0-89.272-40.047-89.272-89.271
			c0-49.225,40.047-89.271,89.272-89.271C986.094,947.801,1026.141,987.848,1026.141,1037.073z M996.141,1037.073
			c0-32.683-26.589-59.271-59.271-59.271c-32.683,0-59.272,26.589-59.272,59.271c0,32.682,26.589,59.271,59.272,59.271
			C969.552,1096.343,996.141,1069.755,996.141,1037.073z"/>
	</g>
</g>
</svg>
